<?xml version="1.0" encoding="UTF-8"?>
<!DOCTYPE svg PUBLIC "-//W3C//DTD SVG 1.1//EN" "http://www.w3.org/Graphics/SVG/1.1/DTD/svg11.dtd">
<svg xmlns="http://www.w3.org/2000/svg" version="1.1" width="789px" height="789px" style="shape-rendering:geometricPrecision; text-rendering:geometricPrecision; image-rendering:optimizeQuality; fill-rule:evenodd; clip-rule:evenodd" xmlns:xlink="http://www.w3.org/1999/xlink">
<g><path style="opacity:1" fill="#efefef" d="M 364.5,1.5 C 379.658,0.503802 394.991,0.170469 410.5,0.5C 411.931,2.18867 412.764,4.18867 413,6.5C 413.441,14.5494 414.275,22.5494 415.5,30.5C 416.617,85.5237 416.617,140.69 415.5,196C 416.022,209.999 416.688,223.832 417.5,237.5C 417.5,238.833 417.5,240.167 417.5,241.5C 416.732,240.737 416.232,239.737 416,238.5C 415.648,261.506 415.148,284.506 414.5,307.5C 418.702,307.183 422.702,307.517 426.5,308.5C 417.167,308.5 407.833,308.5 398.5,308.5C 398.5,309.5 398.5,310.5 398.5,311.5C 403.545,311.338 407.378,313.338 410,317.5C 410.964,337.565 410.63,357.565 409,377.5C 403.374,389.058 394.208,393.225 381.5,390C 377.342,388.341 374.342,385.508 372.5,381.5C 373.187,376.1 373.854,370.6 374.5,365C 373.267,348.414 372.267,331.914 371.5,315.5C 371.953,314.542 372.619,313.708 373.5,313C 376.478,312.304 379.478,311.804 382.5,311.5C 382.5,310.5 382.5,309.5 382.5,308.5C 379.038,307.518 375.371,307.185 371.5,307.5C 372.075,277.801 371.409,248.135 369.5,218.5C 375.303,225.816 380.97,233.316 386.5,241C 395.494,241.5 404.494,241.666 413.5,241.5C 413.5,240.167 413.5,238.833 413.5,237.5C 410.386,236.909 407.886,235.242 406,232.5C 397.833,221.5 389.667,210.5 381.5,199.5C 396.32,195.866 403.154,186.532 402,171.5C 397.11,161.297 388.943,155.797 377.5,155C 374.518,154.502 371.518,154.335 368.5,154.5C 368.04,109.395 368.04,64.8953 368.5,21C 369.277,14.947 370.277,8.78032 371.5,2.5C 369.257,1.52577 366.924,1.19244 364.5,1.5 Z"/></g>
<g><path style="opacity:1" fill="#f7f7f7" d="M 410.5,0.5 C 415.547,0.337479 420.547,0.670813 425.5,1.5C 427.103,2.59641 428.603,3.92975 430,5.5C 435.072,20.6902 438.072,36.3569 439,52.5C 441.721,86.5791 443.554,120.579 444.5,154.5C 435.5,154.5 426.5,154.5 417.5,154.5C 417.5,155.833 417.5,157.167 417.5,158.5C 421.642,160.12 425.142,162.786 428,166.5C 428.667,188.167 428.667,209.833 428,231.5C 426.17,236.185 422.67,238.185 417.5,237.5C 416.688,223.832 416.022,209.999 415.5,196C 416.617,140.69 416.617,85.5237 415.5,30.5C 414.275,22.5494 413.441,14.5494 413,6.5C 412.764,4.18867 411.931,2.18867 410.5,0.5 Z"/></g>
<g><path style="opacity:0.999" fill="#efefef" d="M 359.5,1.5 C 355.544,2.62738 353.044,5.29405 352,9.5C 349.303,20.2671 347.136,31.1004 345.5,42C 345.665,43.1169 345.998,44.2836 346.5,45.5C 345.46,51.6498 344.46,57.8165 343.5,64C 343.911,65.1442 344.244,66.3109 344.5,67.5C 343.643,78.3923 342.643,89.2257 341.5,100C 342.131,104.981 342.465,109.981 342.5,115C 341.489,128.468 340.822,141.635 340.5,154.5C 335.167,154.5 329.833,154.5 324.5,154.5C 324.5,155.833 324.5,157.167 324.5,158.5C 327.607,158.351 330.607,158.851 333.5,160C 334.126,160.75 334.626,161.584 335,162.5C 335.667,186.167 335.667,209.833 335,233.5C 332.772,236.078 329.939,237.411 326.5,237.5C 324.824,238.183 324.157,239.517 324.5,241.5C 329.833,241.5 335.167,241.5 340.5,241.5C 341.075,250.195 341.075,258.861 340.5,267.5C 342.393,280.702 342.726,294.035 341.5,307.5C 340.5,307.5 339.5,307.5 338.5,307.5C 338.232,309.099 338.566,310.432 339.5,311.5C 340.791,311.263 341.791,311.596 342.5,312.5C 342.496,319.182 342.162,326.015 341.5,333C 343.341,375.828 345.008,418.662 346.5,461.5C 339.5,461.5 332.5,461.5 325.5,461.5C 325.174,470.349 325.507,479.016 326.5,487.5C 327.833,487.5 329.167,487.5 330.5,487.5C 330.732,475.599 336.732,468.599 348.5,466.5C 347.609,467.261 346.942,468.261 346.5,469.5C 348.137,493.987 349.804,518.32 351.5,542.5C 348.877,544.265 345.877,544.932 342.5,544.5C 342.5,545.833 342.5,547.167 342.5,548.5C 345.167,548.5 347.833,548.5 350.5,548.5C 354.504,604.884 359.338,661.217 365,717.5C 367.553,739.071 371.386,760.071 376.5,780.5C 371.636,774.11 367.803,767.11 365,759.5C 352.408,720.204 342.741,680.204 336,639.5C 329.694,601.328 324.361,562.994 320,524.5C 319.768,525.737 319.268,526.737 318.5,527.5C 318.517,525.435 318.85,523.435 319.5,521.5C 317.362,506.369 315.362,491.369 313.5,476.5C 313.821,471.305 313.487,466.305 312.5,461.5C 310.681,438.962 308.347,416.628 305.5,394.5C 326.483,383.202 335.316,365.535 332,341.5C 327.504,324.507 317.004,313.174 300.5,307.5C 299.797,295.658 298.797,283.825 297.5,272C 297.58,270.106 297.913,268.273 298.5,266.5C 297.597,257.697 296.597,249.03 295.5,240.5C 302.426,236.046 306.926,229.713 309,221.5C 310.213,201.86 310.88,182.194 311,162.5C 313.194,159.819 316.027,158.319 319.5,158C 320.337,156.989 320.67,155.822 320.5,154.5C 312.167,154.5 303.833,154.5 295.5,154.5C 295.571,145.362 295.238,136.196 294.5,127C 295.721,103.009 297.554,78.8419 300,54.5C 301.229,39.6779 305.229,25.6779 312,12.5C 313.41,11.2125 314.91,10.0458 316.5,9C 315.552,8.51722 314.552,8.35055 313.5,8.5C 328.508,4.88936 343.841,2.55602 359.5,1.5 Z"/></g>
<g><path style="opacity:1" fill="#f7f7f7" d="M 359.5,1.5 C 361.167,1.5 362.833,1.5 364.5,1.5C 366.924,1.19244 369.257,1.52577 371.5,2.5C 370.277,8.78032 369.277,14.947 368.5,21C 368.04,64.8953 368.04,109.395 368.5,154.5C 359.167,154.5 349.833,154.5 340.5,154.5C 340.822,141.635 341.489,128.468 342.5,115C 342.465,109.981 342.131,104.981 341.5,100C 342.643,89.2257 343.643,78.3923 344.5,67.5C 344.244,66.3109 343.911,65.1442 343.5,64C 344.46,57.8165 345.46,51.6498 346.5,45.5C 345.998,44.2836 345.665,43.1169 345.5,42C 347.136,31.1004 349.303,20.2671 352,9.5C 353.044,5.29405 355.544,2.62738 359.5,1.5 Z"/></g>
<g><path style="opacity:0.998" fill="#efefef" d="M 425.5,1.5 C 440.136,2.2859 454.469,4.2859 468.5,7.5C 467.761,7.36899 467.094,7.53566 466.5,8C 468.624,9.12173 470.457,10.6217 472,12.5C 479.196,26.6293 483.03,41.1293 483.5,56C 485.012,64.3027 486.346,72.636 487.5,81C 486.978,81.5613 486.645,82.228 486.5,83C 487.753,93.4723 488.753,103.972 489.5,114.5C 489.32,115.554 488.987,116.554 488.5,117.5C 489.167,123.5 489.833,129.5 490.5,135.5C 489.587,141.797 489.587,148.131 490.5,154.5C 486.167,154.5 481.833,154.5 477.5,154.5C 477.5,155.833 477.5,157.167 477.5,158.5C 483.311,157.742 486.977,160.075 488.5,165.5C 488.829,179.344 488.496,193.01 487.5,206.5C 473.137,189.142 458.804,171.809 444.5,154.5C 443.554,120.579 441.721,86.5791 439,52.5C 438.072,36.3569 435.072,20.6902 430,5.5C 428.603,3.92975 427.103,2.59641 425.5,1.5 Z"/></g>
<g><path style="opacity:1" fill="#f7f7f7" d="M 468.5,7.5 C 472.291,7.65873 475.958,8.32539 479.5,9.5C 484.006,11.4905 487.839,14.4905 491,18.5C 500.689,35.9029 506.689,54.5696 509,74.5C 510.53,85.831 512.03,97.1643 513.5,108.5C 513.372,112.386 513.372,116.22 513.5,120C 514.167,122.667 514.833,125.333 515.5,128C 514.978,128.561 514.645,129.228 514.5,130C 515.405,142.383 516.405,154.716 517.5,167C 517.33,171.176 516.997,175.343 516.5,179.5C 518.534,209.448 518.534,239.448 516.5,269.5C 517.063,270.939 517.397,272.439 517.5,274C 516.032,306.496 514.532,338.996 513,371.5C 512.892,375.465 512.059,379.132 510.5,382.5C 503.222,372.876 495.889,363.209 488.5,353.5C 493.294,351.269 497.961,348.769 502.5,346C 508.114,339.515 509.948,332.015 508,323.5C 503.816,314.989 496.983,310.322 487.5,309.5C 487.196,308.85 486.863,308.183 486.5,307.5C 488.208,285.896 489.208,264.229 489.5,242.5C 491.042,243.301 492.708,243.634 494.5,243.5C 494.333,217.165 494.5,190.831 495,164.5C 496.411,159.871 499.577,157.871 504.5,158.5C 504.5,157.167 504.5,155.833 504.5,154.5C 499.833,154.5 495.167,154.5 490.5,154.5C 489.587,148.131 489.587,141.797 490.5,135.5C 489.833,129.5 489.167,123.5 488.5,117.5C 488.987,116.554 489.32,115.554 489.5,114.5C 488.753,103.972 487.753,93.4723 486.5,83C 486.645,82.228 486.978,81.5613 487.5,81C 486.346,72.636 485.012,64.3027 483.5,56C 483.03,41.1293 479.196,26.6293 472,12.5C 470.457,10.6217 468.624,9.12173 466.5,8C 467.094,7.53566 467.761,7.36899 468.5,7.5 Z"/></g>
<g><path style="opacity:1" fill="#f7f7f7" d="M 313.5,8.5 C 314.552,8.35055 315.552,8.51722 316.5,9C 314.91,10.0458 313.41,11.2125 312,12.5C 305.229,25.6779 301.229,39.6779 300,54.5C 297.554,78.8419 295.721,103.009 294.5,127C 295.238,136.196 295.571,145.362 295.5,154.5C 294.167,154.5 292.833,154.5 291.5,154.5C 291.5,155.833 291.5,157.167 291.5,158.5C 292.5,158.5 293.5,158.5 294.5,158.5C 294.7,175.936 295.366,193.603 296.5,211.5C 295.545,218.708 295.212,226.041 295.5,233.5C 288.645,237.74 281.312,238.574 273.5,236C 271.382,234.951 269.716,233.451 268.5,231.5C 268.544,216.876 268.21,202.376 267.5,188C 268.179,178.167 268.845,168.334 269.5,158.5C 271.5,158.5 273.5,158.5 275.5,158.5C 275.5,157.167 275.5,155.833 275.5,154.5C 273.167,154.5 270.833,154.5 268.5,154.5C 269.29,118.302 273.457,82.3017 281,46.5C 283.665,33.331 289.832,22.1643 299.5,13C 301.315,12.2432 302.981,11.4098 304.5,10.5C 307.219,9.08699 310.219,8.42032 313.5,8.5 Z"/></g>
<g><path style="opacity:0.999" fill="#efefef" d="M 479.5,9.5 C 493.957,12.2774 507.957,16.2774 521.5,21.5C 520.761,21.369 520.094,21.5357 519.5,22C 530.723,28.9249 538.223,38.7583 542,51.5C 550.682,78.9233 555.516,107.09 556.5,136C 557.607,149.303 558.607,162.803 559.5,176.5C 558.786,195.809 558.786,215.309 559.5,235C 556.118,310.769 548.785,386.269 537.5,461.5C 531.5,461.5 525.5,461.5 519.5,461.5C 519.232,463.099 519.566,464.432 520.5,465.5C 526.627,465.043 530.294,467.709 531.5,473.5C 531.829,487.344 531.496,501.01 530.5,514.5C 521.167,502.833 511.833,491.167 502.5,479.5C 503.963,476.797 504.796,473.797 505,470.5C 507.257,445.505 509.424,420.505 511.5,395.5C 504.978,395.823 498.645,395.49 492.5,394.5C 501.833,394.5 511.167,394.5 520.5,394.5C 520.5,393.5 520.5,392.5 520.5,391.5C 515.949,389.954 512.616,386.954 510.5,382.5C 512.059,379.132 512.892,375.465 513,371.5C 514.532,338.996 516.032,306.496 517.5,274C 517.397,272.439 517.063,270.939 516.5,269.5C 518.534,239.448 518.534,209.448 516.5,179.5C 516.997,175.343 517.33,171.176 517.5,167C 516.405,154.716 515.405,142.383 514.5,130C 514.645,129.228 514.978,128.561 515.5,128C 514.833,125.333 514.167,122.667 513.5,120C 513.372,116.22 513.372,112.386 513.5,108.5C 512.03,97.1643 510.53,85.831 509,74.5C 506.689,54.5696 500.689,35.9029 491,18.5C 487.839,14.4905 484.006,11.4905 479.5,9.5 Z"/></g>
<g><path style="opacity:0.998" fill="#efefef" d="M 304.5,10.5 C 302.981,11.4098 301.315,12.2432 299.5,13C 289.832,22.1643 283.665,33.331 281,46.5C 273.457,82.3017 269.29,118.302 268.5,154.5C 256.5,154.5 244.5,154.5 232.5,154.5C 232.5,155.833 232.5,157.167 232.5,158.5C 236.684,157.704 239.85,159.037 242,162.5C 242.333,181.167 242.667,199.833 243,218.5C 245.382,233.049 253.882,241.382 268.5,243.5C 269.811,250.559 269.811,257.392 268.5,264C 269.302,269.1 269.969,274.266 270.5,279.5C 270.43,280.772 270.097,281.938 269.5,283C 270.315,290.087 270.815,297.253 271,304.5C 271.232,305.737 271.732,306.737 272.5,307.5C 247.1,318.63 237.266,337.964 243,365.5C 248.279,382.282 259.445,392.615 276.5,396.5C 278.98,418.116 280.98,439.782 282.5,461.5C 272.167,461.5 261.833,461.5 251.5,461.5C 244.784,417.321 238.95,373.321 234,329.5C 233.951,323.57 233.118,317.903 231.5,312.5C 232.209,311.596 233.209,311.263 234.5,311.5C 234.5,310.5 234.5,309.5 234.5,308.5C 233.791,307.596 232.791,307.263 231.5,307.5C 231.414,306.504 231.748,305.671 232.5,305C 231.146,291.531 229.812,278.031 228.5,264.5C 227.917,255.045 227.917,245.878 228.5,237C 227.833,230.667 227.167,224.333 226.5,218C 226.574,197.595 226.574,177.262 226.5,157C 227.729,127.612 231.229,98.4448 237,69.5C 239.863,56.5673 244.863,44.5673 252,33.5C 255.581,29.2477 259.748,25.7477 264.5,23C 263.906,22.5357 263.239,22.369 262.5,22.5C 276.002,17.1147 290.002,13.1147 304.5,10.5 Z"/></g>
<g><path style="opacity:1" fill="#f6f6f6" d="M 521.5,21.5 C 525.383,22.4588 529.05,23.7922 532.5,25.5C 546.415,33.937 556.248,45.937 562,61.5C 569.03,79.9302 574.03,98.9302 577,118.5C 584.995,180.531 586.162,242.364 580.5,304C 581.301,307.736 581.634,311.403 581.5,315C 573.913,419.91 556.746,523.077 530,624.5C 520.999,655.153 510.332,685.153 498,714.5C 489.96,730.972 480.627,746.638 470,761.5C 465.973,765.772 461.806,769.939 457.5,774C 458.167,774.667 458.833,774.667 459.5,774C 476.531,760.305 490.698,744.138 502,725.5C 532.874,669.717 556.041,610.717 571.5,548.5C 573.833,548.5 576.167,548.5 578.5,548.5C 578.5,547.167 578.5,545.833 578.5,544.5C 576.833,544.5 575.167,544.5 573.5,544.5C 575.294,537.53 576.961,530.53 578.5,523.5C 586.5,523.5 594.5,523.5 602.5,523.5C 587.246,585.989 564.746,645.656 535,702.5C 521.297,726.723 504.131,748.223 483.5,767C 484.167,767.667 484.833,767.667 485.5,767C 512.717,745.79 534.884,720.29 552,690.5C 578.297,645.564 599.464,598.23 615.5,548.5C 622.167,548.5 628.833,548.5 635.5,548.5C 616.24,610.02 587.74,666.687 550,718.5C 537.463,734.037 523.297,747.871 507.5,760C 507.833,760.167 508.167,760.333 508.5,760.5C 531.737,743.765 552.237,724.098 570,701.5C 603.92,655.006 631.086,604.672 651.5,550.5C 651.352,547.648 652.686,545.981 655.5,545.5C 659.608,547.588 663.941,548.921 668.5,549.5C 653.693,589.447 634.86,627.447 612,663.5C 591.615,694.676 567.782,722.342 540.5,746.5C 568.504,724.996 593.004,699.996 614,671.5C 640.699,633.63 663.199,593.297 681.5,550.5C 686.558,549.036 691.558,547.37 696.5,545.5C 671.921,608.986 635.921,665.486 588.5,715C 582.5,720.333 576.5,725.667 570.5,731C 571.167,731.667 571.833,731.667 572.5,731C 608.415,700.762 638.915,665.928 664,626.5C 719.252,539.055 750.752,443.555 758.5,340C 760.629,297.931 754.796,256.431 741,215.5C 738.048,207.595 734.548,199.928 730.5,192.5C 730.624,191.893 730.957,191.56 731.5,191.5C 733.588,193.336 734.921,195.669 735.5,198.5C 757.69,245.279 767.524,294.612 765,346.5C 757.154,472.456 713.487,583.789 634,680.5C 625.531,689.97 616.697,699.137 607.5,708C 608.167,708.667 608.833,708.667 609.5,708C 674.905,644.399 721.405,568.899 749,481.5C 767.577,424.554 774.577,366.22 770,306.5C 767.442,285.038 763.108,264.038 757,243.5C 757.278,244.416 757.778,245.082 758.5,245.5C 777.643,304.776 781.477,364.109 770,423.5C 750.109,527.292 704.442,617.292 633,693.5C 708.714,618.087 756.047,527.42 775,421.5C 781.06,384.643 781.56,348.143 776.5,312C 776.608,310.319 777.275,309.152 778.5,308.5C 779.675,312.042 780.341,315.709 780.5,319.5C 789.448,439.678 757.114,547.678 683.5,643.5C 683.667,643.833 683.833,644.167 684,644.5C 750.868,559.244 785.035,464.244 786.5,359.5C 786.5,360.5 786.5,361.5 786.5,362.5C 787.621,440.017 769.287,512.683 731.5,580.5C 731.846,581.696 732.346,581.696 733,580.5C 758.459,535.238 775.125,486.905 783,435.5C 783.567,438.168 784.067,440.834 784.5,443.5C 769.584,552.872 718.918,641.372 632.5,709C 629.778,711.358 626.778,713.191 623.5,714.5C 516.981,786.53 401.648,805.03 277.5,770C 168.825,733.34 90.158,666.34 41.5,569C 41.8333,568.667 42.1667,568.333 42.5,568C 40.355,566.057 38.6883,563.724 37.5,561C 40.1667,560.333 40.1667,559.667 37.5,559C 38.8331,557.16 38.6665,556.66 37,557.5C 36,555.833 35,554.167 34,552.5C 33.4054,551.101 33.5721,549.768 34.5,548.5C 32.6898,548.577 31.3565,547.41 30.5,545C 32.8776,544.026 32.5443,543.359 29.5,543C 31.9316,541.913 31.5983,541.413 28.5,541.5C 28.1958,538.421 27.1958,535.587 25.5,533C 27.9011,532.195 27.7344,531.362 25,530.5C 24.3162,529.216 24.4829,528.049 25.5,527C 22.5363,526.16 22.203,525.16 24.5,524C 23.8333,523.667 23.1667,523.333 22.5,523C 22.6398,521.403 22.6398,519.903 22.5,518.5C 18.9562,515.202 17.6229,511.202 18.5,506.5C 17.8333,506.167 17.1667,505.833 16.5,505.5C 16.8333,504.833 17.1667,504.167 17.5,503.5C 17.1543,502.304 16.6543,502.304 16,503.5C 16.6981,501.236 16.1981,499.403 14.5,498C 14.1119,496.475 14.1119,494.808 14.5,493C 12.4689,491.39 12.4689,489.557 14.5,487.5C 14.3333,486.833 14.1667,486.167 14,485.5C 13.8508,488.279 13.0174,488.779 11.5,487C 11.3775,485.211 11.3775,483.378 11.5,481.5C 10.8333,480.5 10.1667,479.5 9.5,478.5C 11.1836,477.146 11.6836,475.479 11,473.5C 10.8508,476.279 10.0174,476.779 8.5,475C 10.7549,472.022 10.9215,468.856 9,465.5C 8.0164,467.795 7.18306,467.461 6.5,464.5C 8.03963,463.468 8.53963,462.135 8,460.5C 7.44437,462.595 6.94437,462.762 6.5,461C 7.45894,458.88 7.6256,456.713 7,454.5C 6.44437,456.595 5.94437,456.762 5.5,455C 6.40909,453.211 6.57575,451.377 6,449.5C 5.44437,451.595 4.94437,451.762 4.5,450C 5.16079,447.536 5.66079,445.036 6,442.5C 15.591,498.212 35.4244,549.212 65.5,595.5C 21.8961,523.506 0.562755,445.34 1.5,361C 3.4199,468.791 40.2532,566.291 112,653.5C 81.4667,614.162 56.4667,571.162 37,524.5C 14.0362,467.718 3.7029,408.718 6,347.5C 6.58151,336.933 7.74817,326.433 9.5,316C 9.41476,314.893 9.08142,313.893 8.5,313C 10.5922,312.047 10.9255,310.714 9.5,309C 11.0738,307.174 11.9071,305.007 12,302.5C 2.12995,374.586 11.13,445.586 39,515.5C 66.0633,584.86 106.23,645.36 159.5,697C 160.167,697.667 160.833,697.667 161.5,697C 85.7264,620.638 37.8931,529.138 18,422.5C 8.1947,371.679 9.52803,321.012 22,270.5C 24.1354,263.094 26.4687,255.761 29,248.5C 23.2418,270.462 19.0751,292.796 16.5,315.5C 13.741,375.653 22.5743,434.653 43,492.5C 71.2204,574.335 116.054,645.502 177.5,706C 180.463,707.961 183.129,710.294 185.5,713C 186.167,713.667 186.833,713.667 187.5,713C 131.004,658.898 88.8369,595.065 61,521.5C 34.6716,455.722 21.8383,387.555 22.5,317C 23.891,275.174 34.0577,235.674 53,198.5C 34.0884,244.528 26.4218,292.528 30,342.5C 39.6773,456.798 77.6773,560.465 144,653.5C 165.346,682.85 190.18,709.016 218.5,732C 219.167,732.667 219.833,732.667 220.5,732C 180.626,696.458 147.792,655.291 122,608.5C 71.5657,517.282 44.0657,419.449 39.5,315C 39.2306,282.33 43.3973,249.83 52,217.5C 58.8276,195.181 68.8276,174.514 82,155.5C 63.9549,188.965 53.6216,224.631 51,262.5C 47.3652,329.048 55.3652,395.048 75,460.5C 97.2597,538.342 131.926,610.008 179,675.5C 200.167,703.333 224.667,727.833 252.5,749C 253.167,749.667 253.833,749.667 254.5,749C 224.353,724.527 198.853,696.027 178,663.5C 101.632,539.757 64.1319,404.924 65.5,259C 67.3464,226.112 74.1798,194.279 86,163.5C 94.6897,142.766 106.856,124.433 122.5,108.5C 123.5,106.833 124.833,105.5 126.5,104.5C 106.279,128.965 92.7791,157.298 86,189.5C 83.2685,203.291 81.1019,217.125 79.5,231C 76.1366,297.413 82.6366,363.58 99,429.5C 118.991,513.78 151.324,592.78 196,666.5C 216.523,699.358 241.689,728.191 271.5,753C 274.199,755.51 277.199,757.176 280.5,758C 254.325,736.105 232.492,710.605 215,681.5C 189.646,639.456 169.146,595.123 153.5,548.5C 160.167,548.5 166.833,548.5 173.5,548.5C 190.935,598.615 213.101,646.615 240,692.5C 255.505,717.682 274.339,740.182 296.5,760C 299.833,762.333 303.167,764.667 306.5,767C 307.167,767.667 307.833,767.667 308.5,767C 294.968,755.798 283.134,742.965 273,728.5C 253.309,699.42 236.975,668.42 224,635.5C 208.504,597.188 196.004,558.188 186.5,518.5C 194.001,528.174 201.335,538.007 208.5,548C 211.817,548.498 215.15,548.665 218.5,548.5C 232.628,601.309 251.795,652.309 276,701.5C 288.529,725.722 304.362,747.556 323.5,767C 327.024,770.025 330.691,772.858 334.5,775.5C 334.833,775.333 335.167,775.167 335.5,775C 325.895,766.729 317.729,757.229 311,746.5C 299.836,727.74 290.169,708.073 282,687.5C 273.732,665.029 266.065,642.363 259,619.5C 252.938,595.914 247.104,572.247 241.5,548.5C 250.5,548.5 259.5,548.5 268.5,548.5C 278.314,601.097 292.481,652.43 311,702.5C 319.176,725.412 330.176,746.746 344,766.5C 347.667,771.5 352,775.833 357,779.5C 354.898,775.347 352.231,771.347 349,767.5C 337.964,745.06 329.297,721.727 323,697.5C 310.767,648.379 301.267,598.712 294.5,548.5C 301.167,548.5 307.833,548.5 314.5,548.5C 315.321,541.395 316.654,534.395 318.5,527.5C 319.268,526.737 319.768,525.737 320,524.5C 324.361,562.994 329.694,601.328 336,639.5C 342.741,680.204 352.408,720.204 365,759.5C 367.803,767.11 371.636,774.11 376.5,780.5C 371.386,760.071 367.553,739.071 365,717.5C 359.338,661.217 354.504,604.884 350.5,548.5C 360.5,548.5 370.5,548.5 380.5,548.5C 383.238,625.305 388.071,701.971 395,778.5C 395.249,779.624 395.749,780.624 396.5,781.5C 399.942,759.653 402.109,737.653 403,715.5C 405.556,659.664 408.056,603.998 410.5,548.5C 419.833,548.5 429.167,548.5 438.5,548.5C 436.843,617.18 431.343,685.513 422,753.5C 420.308,762.687 418.308,771.687 416,780.5C 421.031,773.775 425.031,766.442 428,758.5C 440.634,717.625 449.968,675.958 456,633.5C 459.743,605.163 463.576,576.829 467.5,548.5C 474.833,548.5 482.167,548.5 489.5,548.5C 489.5,547.167 489.5,545.833 489.5,544.5C 485.484,545.1 481.984,544.1 479,541.5C 477.991,539.975 477.491,538.308 477.5,536.5C 477.17,518.659 477.503,500.992 478.5,483.5C 485.803,492.475 493.137,501.475 500.5,510.5C 493.483,573.123 482.983,635.123 469,696.5C 463.258,720.722 454.925,744.056 444,766.5C 441.533,770.6 438.699,774.434 435.5,778C 436.167,778.667 436.833,778.667 437.5,778C 450.261,764.99 460.427,750.157 468,733.5C 480.845,703.965 491.512,673.632 500,642.5C 508.98,608.252 517.147,573.919 524.5,539.5C 527.635,542.808 530.635,546.308 533.5,550C 534.793,550.49 536.127,550.657 537.5,550.5C 537.333,523.831 537.5,497.165 538,470.5C 540.212,467.143 543.378,465.476 547.5,465.5C 547.5,464.5 547.5,463.5 547.5,462.5C 544.375,461.521 541.042,461.187 537.5,461.5C 548.785,386.269 556.118,310.769 559.5,235C 558.786,215.309 558.786,195.809 559.5,176.5C 558.607,162.803 557.607,149.303 556.5,136C 555.516,107.09 550.682,78.9233 542,51.5C 538.223,38.7583 530.723,28.9249 519.5,22C 520.094,21.5357 520.761,21.369 521.5,21.5 Z"/></g>
<g><path style="opacity:1" fill="#f7f7f7" d="M 262.5,22.5 C 263.239,22.369 263.906,22.5357 264.5,23C 259.748,25.7477 255.581,29.2477 252,33.5C 244.863,44.5673 239.863,56.5673 237,69.5C 231.229,98.4448 227.729,127.612 226.5,157C 226.574,177.262 226.574,197.595 226.5,218C 227.167,224.333 227.833,230.667 228.5,237C 227.917,245.878 227.917,255.045 228.5,264.5C 229.812,278.031 231.146,291.531 232.5,305C 231.748,305.671 231.414,306.504 231.5,307.5C 222.833,307.5 214.167,307.5 205.5,307.5C 205.09,291.849 204.09,276.349 202.5,261C 202.86,254.057 203.193,246.891 203.5,239.5C 221.91,234.344 227.743,223.011 221,205.5C 215.848,200.009 209.681,196.175 202.5,194C 218.457,189.586 223.29,179.753 217,164.5C 213.421,160.724 209.254,158.057 204.5,156.5C 205.951,126.934 211.118,97.6003 220,68.5C 225.889,49.466 237.389,35.1327 254.5,25.5C 256.936,24.129 259.603,23.129 262.5,22.5 Z"/></g>
<g><path style="opacity:0.992" fill="#efefef" d="M 254.5,25.5 C 237.389,35.1327 225.889,49.466 220,68.5C 211.118,97.6003 205.951,126.934 204.5,156.5C 192.941,154.67 181.274,154.003 169.5,154.5C 171.632,132.007 176.132,110.007 183,88.5C 188.555,71.2926 198.388,57.126 212.5,46C 211.181,45.805 209.847,45.9717 208.5,46.5C 223.029,37.9047 238.363,30.9047 254.5,25.5 Z"/></g>
<g><path style="opacity:0.999" fill="#efefef" d="M 532.5,25.5 C 547.479,30.492 561.812,36.8254 575.5,44.5C 574.761,44.369 574.094,44.5357 573.5,45C 581.062,51.5633 587.562,59.0633 593,67.5C 604.019,89.5665 611.019,112.9 614,137.5C 619.656,181.269 620.823,224.769 617.5,268C 618.097,269.889 618.431,271.722 618.5,273.5C 613.574,336.553 605.241,398.887 593.5,460.5C 583.349,485.474 573.182,510.474 563,535.5C 561.109,540.57 557.609,543.57 552.5,544.5C 552.5,545.833 552.5,547.167 552.5,548.5C 558.833,548.5 565.167,548.5 571.5,548.5C 556.041,610.717 532.874,669.717 502,725.5C 490.698,744.138 476.531,760.305 459.5,774C 458.833,774.667 458.167,774.667 457.5,774C 461.806,769.939 465.973,765.772 470,761.5C 480.627,746.638 489.96,730.972 498,714.5C 510.332,685.153 520.999,655.153 530,624.5C 556.746,523.077 573.913,419.91 581.5,315C 581.634,311.403 581.301,307.736 580.5,304C 586.162,242.364 584.995,180.531 577,118.5C 574.03,98.9302 569.03,79.9302 562,61.5C 556.248,45.937 546.415,33.937 532.5,25.5 Z"/></g>
<g><path style="opacity:1" fill="#f7f7f7" d="M 575.5,44.5 C 578.669,45.9166 581.669,47.5832 584.5,49.5C 601.499,63.3499 613.666,80.6833 621,101.5C 631.715,132.362 637.548,164.029 638.5,196.5C 639.116,201.856 639.783,207.19 640.5,212.5C 642.323,305.916 632.323,398.25 610.5,489.5C 606.109,480.375 601.942,471.041 598,461.5C 596.644,460.62 595.144,460.286 593.5,460.5C 605.241,398.887 613.574,336.553 618.5,273.5C 618.431,271.722 618.097,269.889 617.5,268C 620.823,224.769 619.656,181.269 614,137.5C 611.019,112.9 604.019,89.5665 593,67.5C 587.562,59.0633 581.062,51.5633 573.5,45C 574.094,44.5357 574.761,44.369 575.5,44.5 Z"/></g>
<g><path style="opacity:1" fill="#f7f7f7" d="M 169.5,154.5 C 163.5,154.5 157.5,154.5 151.5,154.5C 154.796,129.649 161.962,105.982 173,83.5C 180.926,68.4104 192.092,56.4104 206.5,47.5C 206.842,46.6618 207.508,46.3284 208.5,46.5C 209.847,45.9717 211.181,45.805 212.5,46C 198.388,57.126 188.555,71.2926 183,88.5C 176.132,110.007 171.632,132.007 169.5,154.5 Z"/></g>
<g><path style="opacity:0.998" fill="#efefef" d="M 206.5,47.5 C 192.092,56.4104 180.926,68.4104 173,83.5C 161.962,105.982 154.796,129.649 151.5,154.5C 150.167,154.5 148.833,154.5 147.5,154.5C 147.5,155.833 147.5,157.167 147.5,158.5C 148.5,158.5 149.5,158.5 150.5,158.5C 149.278,171.81 147.945,184.81 146.5,197.5C 146.071,211.429 146.071,224.762 146.5,237.5C 146.5,238.833 146.5,240.167 146.5,241.5C 146.461,242.583 146.127,243.583 145.5,244.5C 146.22,265.067 147.553,285.567 149.5,306C 148.944,306.383 148.611,306.883 148.5,307.5C 147.508,307.328 146.842,307.662 146.5,308.5C 146.5,309.5 146.5,310.5 146.5,311.5C 148.099,311.232 149.432,311.566 150.5,312.5C 149.853,313.274 149.52,314.274 149.5,315.5C 154.32,364.577 161.654,413.243 171.5,461.5C 163.5,461.5 155.5,461.5 147.5,461.5C 131.322,398.561 121.322,334.895 117.5,270.5C 116.225,235.429 118.058,200.429 123,165.5C 127.073,136.045 137.74,109.378 155,85.5C 158.833,81.6667 162.667,77.8333 166.5,74C 165.906,73.5357 165.239,73.369 164.5,73.5C 177.486,63.333 191.486,54.6663 206.5,47.5 Z"/></g>
<g><path style="opacity:0.999" fill="#efefef" d="M 584.5,49.5 C 597.017,55.5859 608.684,62.9193 619.5,71.5C 622.761,76.3029 626.928,80.9696 632,85.5C 650.462,112.946 661.462,143.279 665,176.5C 670.198,219.948 670.865,263.281 667,306.5C 660.078,379.945 645.911,451.945 624.5,522.5C 619.463,511.74 614.796,500.74 610.5,489.5C 632.323,398.25 642.323,305.916 640.5,212.5C 639.783,207.19 639.116,201.856 638.5,196.5C 637.548,164.029 631.715,132.362 621,101.5C 613.666,80.6833 601.499,63.3499 584.5,49.5 Z"/></g>
<g><path style="opacity:1" fill="#f7f6f6" d="M 619.5,71.5 C 623.707,73.4354 627.373,76.1021 630.5,79.5C 649.308,98.0927 662.808,120.093 671,145.5C 679.467,174.801 684.633,204.634 686.5,235C 688.021,312.139 679.687,387.973 661.5,462.5C 648.069,471.517 644.735,483.517 651.5,498.5C 650.09,505.213 648.423,511.88 646.5,518.5C 643.526,527.086 640.526,535.753 637.5,544.5C 635.629,544.141 634.129,543.141 633,541.5C 629.606,535.381 626.772,529.048 624.5,522.5C 645.911,451.945 660.078,379.945 667,306.5C 670.865,263.281 670.198,219.948 665,176.5C 661.462,143.279 650.462,112.946 632,85.5C 626.928,80.9696 622.761,76.3029 619.5,71.5 Z"/></g>
<g><path style="opacity:1" fill="#f7f7f7" d="M 164.5,73.5 C 165.239,73.369 165.906,73.5357 166.5,74C 162.667,77.8333 158.833,81.6667 155,85.5C 137.74,109.378 127.073,136.045 123,165.5C 118.058,200.429 116.225,235.429 117.5,270.5C 121.322,334.895 131.322,398.561 147.5,461.5C 146.167,462.833 146.167,464.167 147.5,465.5C 147.833,465.5 148.167,465.5 148.5,465.5C 157.029,489.013 160.029,513.347 157.5,538.5C 157.368,541.797 155.702,543.463 152.5,543.5C 142.332,517.203 133.832,490.203 127,462.5C 107.738,386.464 98.9048,309.63 100.5,232C 102.182,198.236 108.682,165.403 120,133.5C 129.178,109.77 143.678,90.1035 163.5,74.5C 163.5,73.8333 163.833,73.5 164.5,73.5 Z"/></g>
<g><path style="opacity:0.998" fill="#efefef" d="M 163.5,74.5 C 143.678,90.1035 129.178,109.77 120,133.5C 108.682,165.403 102.182,198.236 100.5,232C 98.9048,309.63 107.738,386.464 127,462.5C 133.832,490.203 142.332,517.203 152.5,543.5C 151.081,544.451 149.415,544.784 147.5,544.5C 147.5,545.833 147.5,547.167 147.5,548.5C 149.5,548.5 151.5,548.5 153.5,548.5C 169.146,595.123 189.646,639.456 215,681.5C 232.492,710.605 254.325,736.105 280.5,758C 277.199,757.176 274.199,755.51 271.5,753C 241.689,728.191 216.523,699.358 196,666.5C 151.324,592.78 118.991,513.78 99,429.5C 82.6366,363.58 76.1366,297.413 79.5,231C 81.1019,217.125 83.2685,203.291 86,189.5C 92.7791,157.298 106.279,128.965 126.5,104.5C 137.669,92.9911 150.002,82.9911 163.5,74.5 Z"/></g>
<g><path style="opacity:0.998" fill="#efefef" d="M 630.5,79.5 C 641.248,86.8826 651.248,95.216 660.5,104.5C 682.19,130.591 696.023,160.924 702,195.5C 709.201,239.553 710.367,283.719 705.5,328C 702.016,372.315 694.016,415.982 681.5,459C 682.737,459.232 683.737,459.732 684.5,460.5C 678.862,459.541 673.195,459.374 667.5,460C 665.189,460.236 663.189,461.069 661.5,462.5C 679.687,387.973 688.021,312.139 686.5,235C 684.633,204.634 679.467,174.801 671,145.5C 662.808,120.093 649.308,98.0927 630.5,79.5 Z"/></g>
<g><path style="opacity:1" fill="#f6f6f6" d="M 660.5,104.5 C 663.582,106.372 666.249,108.705 668.5,111.5C 692.887,140.081 708.387,173.081 715,210.5C 719.11,232.875 721.61,255.375 722.5,278C 722.624,317.452 719.124,357.619 712,398.5C 707.83,418.857 703.664,439.191 699.5,459.5C 699.509,462.136 698.175,463.469 695.5,463.5C 691.749,462.692 688.082,461.692 684.5,460.5C 683.737,459.732 682.737,459.232 681.5,459C 694.016,415.982 702.016,372.315 705.5,328C 710.367,283.719 709.201,239.553 702,195.5C 696.023,160.924 682.19,130.591 660.5,104.5 Z"/></g>
<g><path style="opacity:0.996" fill="#efefef" d="M 668.5,111.5 C 675.88,118.565 683.047,125.899 690,133.5C 692.41,136.397 694.577,139.397 696.5,142.5C 719.476,177.254 732.642,215.588 736,257.5C 741.051,342.182 728.884,424.182 699.5,503.5C 695.492,501.163 691.492,498.83 687.5,496.5C 690.209,489.61 692.543,482.61 694.5,475.5C 697.79,478.756 699.457,482.756 699.5,487.5C 700.833,487.5 702.167,487.5 703.5,487.5C 703.5,478.167 703.5,468.833 703.5,459.5C 702.167,459.5 700.833,459.5 699.5,459.5C 703.664,439.191 707.83,418.857 712,398.5C 719.124,357.619 722.624,317.452 722.5,278C 721.61,255.375 719.11,232.875 715,210.5C 708.387,173.081 692.887,140.081 668.5,111.5 Z"/></g>
<g><path style="opacity:0.957" fill="#efefef" d="M 122.5,108.5 C 106.856,124.433 94.6897,142.766 86,163.5C 74.1798,194.279 67.3464,226.112 65.5,259C 64.1319,404.924 101.632,539.757 178,663.5C 198.853,696.027 224.353,724.527 254.5,749C 253.833,749.667 253.167,749.667 252.5,749C 224.667,727.833 200.167,703.333 179,675.5C 131.926,610.008 97.2597,538.342 75,460.5C 55.3652,395.048 47.3652,329.048 51,262.5C 53.6216,224.631 63.9549,188.965 82,155.5C 68.8276,174.514 58.8276,195.181 52,217.5C 43.3973,249.83 39.2306,282.33 39.5,315C 44.0657,419.449 71.5657,517.282 122,608.5C 147.792,655.291 180.626,696.458 220.5,732C 219.833,732.667 219.167,732.667 218.5,732C 190.18,709.016 165.346,682.85 144,653.5C 77.6773,560.465 39.6773,456.798 30,342.5C 26.4218,292.528 34.0884,244.528 53,198.5C 34.0577,235.674 23.891,275.174 22.5,317C 21.8383,387.555 34.6716,455.722 61,521.5C 88.8369,595.065 131.004,658.898 187.5,713C 186.833,713.667 186.167,713.667 185.5,713C 183.129,710.294 180.463,707.961 177.5,706C 116.054,645.502 71.2204,574.335 43,492.5C 22.5743,434.653 13.741,375.653 16.5,315.5C 19.0751,292.796 23.2418,270.462 29,248.5C 26.4687,255.761 24.1354,263.094 22,270.5C 9.52803,321.012 8.1947,371.679 18,422.5C 37.8931,529.138 85.7264,620.638 161.5,697C 160.833,697.667 160.167,697.667 159.5,697C 106.23,645.36 66.0633,584.86 39,515.5C 11.13,445.586 2.12995,374.586 12,302.5C 11.9071,305.007 11.0738,307.174 9.5,309C 10.9255,310.714 10.5922,312.047 8.5,313C 9.08142,313.893 9.41476,314.893 9.5,316C 7.74817,326.433 6.58151,336.933 6,347.5C 3.7029,408.718 14.0362,467.718 37,524.5C 56.4667,571.162 81.4667,614.162 112,653.5C 40.2532,566.291 3.4199,468.791 1.5,361C 0.562755,445.34 21.8961,523.506 65.5,595.5C 35.4244,549.212 15.591,498.212 6,442.5C 5.66079,445.036 5.16079,447.536 4.5,450C 4.94437,451.762 5.44437,451.595 6,449.5C 6.57575,451.377 6.40909,453.211 5.5,455C 5.94437,456.762 6.44437,456.595 7,454.5C 7.6256,456.713 7.45894,458.88 6.5,461C 6.94437,462.762 7.44437,462.595 8,460.5C 8.53963,462.135 8.03963,463.468 6.5,464.5C 7.18306,467.461 8.0164,467.795 9,465.5C 10.9215,468.856 10.7549,472.022 8.5,475C 10.0174,476.779 10.8508,476.279 11,473.5C 11.6836,475.479 11.1836,477.146 9.5,478.5C 10.1667,479.5 10.8333,480.5 11.5,481.5C 11.3775,483.378 11.3775,485.211 11.5,487C 13.0174,488.779 13.8508,488.279 14,485.5C 14.1667,486.167 14.3333,486.833 14.5,487.5C 12.4689,489.557 12.4689,491.39 14.5,493C 14.1119,494.808 14.1119,496.475 14.5,498C 16.1981,499.403 16.6981,501.236 16,503.5C 16.6543,502.304 17.1543,502.304 17.5,503.5C 17.1667,504.167 16.8333,504.833 16.5,505.5C 17.1667,505.833 17.8333,506.167 18.5,506.5C 17.6229,511.202 18.9562,515.202 22.5,518.5C 22.6398,519.903 22.6398,521.403 22.5,523C 23.1667,523.333 23.8333,523.667 24.5,524C 22.203,525.16 22.5363,526.16 25.5,527C 24.4829,528.049 24.3162,529.216 25,530.5C 27.7344,531.362 27.9011,532.195 25.5,533C 27.1958,535.587 28.1958,538.421 28.5,541.5C 31.5983,541.413 31.9316,541.913 29.5,543C 32.5443,543.359 32.8776,544.026 30.5,545C 31.3565,547.41 32.6898,548.577 34.5,548.5C 33.5721,549.768 33.4054,551.101 34,552.5C 35,554.167 36,555.833 37,557.5C 38.6665,556.66 38.8331,557.16 37.5,559C 40.1667,559.667 40.1667,560.333 37.5,561C 38.6883,563.724 40.355,566.057 42.5,568C 42.1667,568.333 41.8333,568.667 41.5,569C 90.158,666.34 168.825,733.34 277.5,770C 401.648,805.03 516.981,786.53 623.5,714.5C 580.065,746.54 531.732,768.373 478.5,780C 459.835,783.829 441.169,786.663 422.5,788.5C 403.167,788.5 383.833,788.5 364.5,788.5C 245.05,777.039 148.883,724.039 76,629.5C 31.4439,568.008 5.94386,499.341 -0.5,423.5C -0.5,404.167 -0.5,384.833 -0.5,365.5C 7.60037,271.988 43.4337,190.988 107,122.5C 111.759,117.234 116.925,112.567 122.5,108.5 Z"/></g>
<g><path style="opacity:1" fill="#f6f6f6" d="M 696.5,142.5 C 699.848,145.851 702.848,149.518 705.5,153.5C 731.872,194.797 745.705,240.13 747,289.5C 749.565,368.706 736.398,445.039 707.5,518.5C 706.14,512.78 703.474,507.78 699.5,503.5C 728.884,424.182 741.051,342.182 736,257.5C 732.642,215.588 719.476,177.254 696.5,142.5 Z"/></g>
<g><path style="opacity:0.997" fill="#efefef" d="M 705.5,153.5 C 715.331,165.338 723.998,178.005 731.5,191.5C 730.957,191.56 730.624,191.893 730.5,192.5C 734.548,199.928 738.048,207.595 741,215.5C 754.796,256.431 760.629,297.931 758.5,340C 750.752,443.555 719.252,539.055 664,626.5C 638.915,665.928 608.415,700.762 572.5,731C 571.833,731.667 571.167,731.667 570.5,731C 576.5,725.667 582.5,720.333 588.5,715C 635.921,665.486 671.921,608.986 696.5,545.5C 704.656,538.373 708.323,529.373 707.5,518.5C 736.398,445.039 749.565,368.706 747,289.5C 745.705,240.13 731.872,194.797 705.5,153.5 Z"/></g>
<g><path style="opacity:1" fill="#e4c6c6" d="M 151.5,154.5 C 157.5,154.5 163.5,154.5 169.5,154.5C 181.274,154.003 192.941,154.67 204.5,156.5C 209.254,158.057 213.421,160.724 217,164.5C 223.29,179.753 218.457,189.586 202.5,194C 209.681,196.175 215.848,200.009 221,205.5C 227.743,223.011 221.91,234.344 203.5,239.5C 200.904,240.265 198.237,240.599 195.5,240.5C 179.5,240.5 163.5,240.5 147.5,240.5C 147.5,239.5 147.5,238.5 147.5,237.5C 152.67,238.185 156.17,236.185 158,231.5C 158.667,208.833 158.667,186.167 158,163.5C 156.59,160.211 154.09,158.544 150.5,158.5C 149.5,158.5 148.5,158.5 147.5,158.5C 147.5,157.167 147.5,155.833 147.5,154.5C 148.833,154.5 150.167,154.5 151.5,154.5 Z"/></g>
<g><path style="opacity:1" fill="#e4c7c7" d="M 268.5,154.5 C 270.833,154.5 273.167,154.5 275.5,154.5C 275.5,155.833 275.5,157.167 275.5,158.5C 273.5,158.5 271.5,158.5 269.5,158.5C 267.284,159.203 265.451,160.536 264,162.5C 263.333,181.833 263.333,201.167 264,220.5C 264.259,224.799 265.759,228.466 268.5,231.5C 269.716,233.451 271.382,234.951 273.5,236C 281.312,238.574 288.645,237.74 295.5,233.5C 298.977,230.56 301.477,226.893 303,222.5C 304.102,212.214 304.602,201.881 304.5,191.5C 304.333,182.833 304.167,174.167 304,165.5C 302.694,160.699 299.527,158.366 294.5,158.5C 293.5,158.5 292.5,158.5 291.5,158.5C 291.5,157.167 291.5,155.833 291.5,154.5C 292.833,154.5 294.167,154.5 295.5,154.5C 303.833,154.5 312.167,154.5 320.5,154.5C 320.67,155.822 320.337,156.989 319.5,158C 316.027,158.319 313.194,159.819 311,162.5C 310.88,182.194 310.213,201.86 309,221.5C 306.926,229.713 302.426,236.046 295.5,240.5C 286.744,243.21 277.744,244.21 268.5,243.5C 253.882,241.382 245.382,233.049 243,218.5C 242.667,199.833 242.333,181.167 242,162.5C 239.85,159.037 236.684,157.704 232.5,158.5C 232.5,157.167 232.5,155.833 232.5,154.5C 244.5,154.5 256.5,154.5 268.5,154.5 Z"/></g>
<g><path style="opacity:1" fill="#e4c6c6" d="M 340.5,154.5 C 349.833,154.5 359.167,154.5 368.5,154.5C 371.518,154.335 374.518,154.502 377.5,155C 388.943,155.797 397.11,161.297 402,171.5C 403.154,186.532 396.32,195.866 381.5,199.5C 389.667,210.5 397.833,221.5 406,232.5C 407.886,235.242 410.386,236.909 413.5,237.5C 413.5,238.833 413.5,240.167 413.5,241.5C 404.494,241.666 395.494,241.5 386.5,241C 380.97,233.316 375.303,225.816 369.5,218.5C 366.078,213.322 362.411,208.322 358.5,203.5C 358.217,202.711 357.717,202.044 357,201.5C 356.176,211.009 356.342,220.343 357.5,229.5C 357.932,234.927 360.932,237.594 366.5,237.5C 366.804,238.15 367.137,238.817 367.5,239.5C 353.5,240.833 339.5,240.833 325.5,239.5C 325.863,238.817 326.196,238.15 326.5,237.5C 329.939,237.411 332.772,236.078 335,233.5C 335.667,209.833 335.667,186.167 335,162.5C 334.626,161.584 334.126,160.75 333.5,160C 330.607,158.851 327.607,158.351 324.5,158.5C 324.5,157.167 324.5,155.833 324.5,154.5C 329.833,154.5 335.167,154.5 340.5,154.5 Z"/></g>
<g><path style="opacity:1" fill="#e4c6c6" d="M 444.5,154.5 C 458.804,171.809 473.137,189.142 487.5,206.5C 487.56,207.043 487.893,207.376 488.5,207.5C 489.826,193.339 489.826,179.339 488.5,165.5C 486.977,160.075 483.311,157.742 477.5,158.5C 477.5,157.167 477.5,155.833 477.5,154.5C 481.833,154.5 486.167,154.5 490.5,154.5C 495.167,154.5 499.833,154.5 504.5,154.5C 504.5,155.833 504.5,157.167 504.5,158.5C 499.577,157.871 496.411,159.871 495,164.5C 494.5,190.831 494.333,217.165 494.5,243.5C 492.708,243.634 491.042,243.301 489.5,242.5C 474.871,223.871 459.871,205.537 444.5,187.5C 441.547,183.375 438.381,179.375 435,175.5C 434.333,193.833 434.333,212.167 435,230.5C 436.32,235.317 439.486,237.651 444.5,237.5C 445.586,237.62 446.253,238.287 446.5,239.5C 446.457,240.416 446.124,241.083 445.5,241.5C 436.167,241.5 426.833,241.5 417.5,241.5C 417.5,240.167 417.5,238.833 417.5,237.5C 422.67,238.185 426.17,236.185 428,231.5C 428.667,209.833 428.667,188.167 428,166.5C 425.142,162.786 421.642,160.12 417.5,158.5C 417.5,157.167 417.5,155.833 417.5,154.5C 426.5,154.5 435.5,154.5 444.5,154.5 Z"/></g>
<g><path style="opacity:1" fill="#f7f6f6" d="M 150.5,158.5 C 154.09,158.544 156.59,160.211 158,163.5C 158.667,186.167 158.667,208.833 158,231.5C 156.17,236.185 152.67,238.185 147.5,237.5C 147.167,237.5 146.833,237.5 146.5,237.5C 146.071,224.762 146.071,211.429 146.5,197.5C 147.945,184.81 149.278,171.81 150.5,158.5 Z"/></g>
<g><path style="opacity:1" fill="#eeeeee" d="M 185.5,192.5 C 183.5,192.5 181.5,192.5 179.5,192.5C 179.5,182.167 179.5,171.833 179.5,161.5C 180.692,159.078 182.692,158.078 185.5,158.5C 192.169,158.666 196.336,161.999 198,168.5C 199.011,175.036 198.344,181.369 196,187.5C 193.383,190.985 189.883,192.652 185.5,192.5 Z"/></g>
<g><path style="opacity:1" fill="#efeeee" d="M 294.5,158.5 C 299.527,158.366 302.694,160.699 304,165.5C 304.167,174.167 304.333,182.833 304.5,191.5C 304.602,201.881 304.102,212.214 303,222.5C 301.477,226.893 298.977,230.56 295.5,233.5C 295.212,226.041 295.545,218.708 296.5,211.5C 295.366,193.603 294.7,175.936 294.5,158.5 Z"/></g>
<g><path style="opacity:1" fill="#efefef" d="M 269.5,158.5 C 268.845,168.334 268.179,178.167 267.5,188C 268.21,202.376 268.544,216.876 268.5,231.5C 265.759,228.466 264.259,224.799 264,220.5C 263.333,201.167 263.333,181.833 264,162.5C 265.451,160.536 267.284,159.203 269.5,158.5 Z"/></g>
<g><path style="opacity:1" fill="#f6f5f5" d="M 368.5,159.5 C 368.895,171.391 369.228,183.391 369.5,195.5C 365.232,196.373 360.898,196.706 356.5,196.5C 356.333,185.162 356.5,173.828 357,162.5C 357.374,161.584 357.874,160.75 358.5,160C 361.817,159.502 365.15,159.335 368.5,159.5 Z"/></g>
<g><path style="opacity:1" fill="#efeeee" d="M 368.5,159.5 C 372.138,159.738 374.971,161.404 377,164.5C 381.663,173.482 381.663,182.482 377,191.5C 374.838,193.496 372.338,194.83 369.5,195.5C 369.228,183.391 368.895,171.391 368.5,159.5 Z"/></g>
<g><path style="opacity:1" fill="#ebe3e3" d="M 179.5,161.5 C 179.5,171.833 179.5,182.167 179.5,192.5C 181.5,192.5 183.5,192.5 185.5,192.5C 183.393,193.468 181.059,193.802 178.5,193.5C 178.172,182.654 178.506,171.987 179.5,161.5 Z"/></g>
<g><path style="opacity:1" fill="#f7f6f6" d="M 444.5,187.5 C 444.995,204.145 444.995,220.812 444.5,237.5C 439.486,237.651 436.32,235.317 435,230.5C 434.333,212.167 434.333,193.833 435,175.5C 438.381,179.375 441.547,183.375 444.5,187.5 Z"/></g>
<g><path style="opacity:1" fill="#efeeee" d="M 444.5,187.5 C 459.871,205.537 474.871,223.871 489.5,242.5C 489.208,264.229 488.208,285.896 486.5,307.5C 486.863,308.183 487.196,308.85 487.5,309.5C 468.88,308.526 450.213,308.192 431.5,308.5C 435.97,307.514 440.637,307.181 445.5,307.5C 445.5,285.5 445.5,263.5 445.5,241.5C 446.124,241.083 446.457,240.416 446.5,239.5C 446.253,238.287 445.586,237.62 444.5,237.5C 444.995,220.812 444.995,204.145 444.5,187.5 Z"/></g>
<g><path style="opacity:1" fill="#ede5e5" d="M 488.5,165.5 C 489.826,179.339 489.826,193.339 488.5,207.5C 487.893,207.376 487.56,207.043 487.5,206.5C 488.496,193.01 488.829,179.344 488.5,165.5 Z"/></g>
<g><path style="opacity:1" fill="#eeeeee" d="M 178.5,197.5 C 188.731,195.947 196.231,199.614 201,208.5C 201.667,214.833 201.667,221.167 201,227.5C 196.849,235.34 190.349,238.173 181.5,236C 180.299,235.097 179.465,233.931 179,232.5C 178.5,220.838 178.333,209.171 178.5,197.5 Z"/></g>
<g><path style="opacity:0.992" fill="#efefef" d="M 735.5,198.5 C 745.009,213.187 752.676,228.853 758.5,245.5C 757.778,245.082 757.278,244.416 757,243.5C 763.108,264.038 767.442,285.038 770,306.5C 774.577,366.22 767.577,424.554 749,481.5C 721.405,568.899 674.905,644.399 609.5,708C 608.833,708.667 608.167,708.667 607.5,708C 616.697,699.137 625.531,689.97 634,680.5C 713.487,583.789 757.154,472.456 765,346.5C 767.524,294.612 757.69,245.279 735.5,198.5 Z"/></g>
<g><path style="opacity:1" fill="#eddfdf" d="M 358.5,203.5 C 357.507,211.984 357.174,220.651 357.5,229.5C 356.342,220.343 356.176,211.009 357,201.5C 357.717,202.044 358.217,202.711 358.5,203.5 Z"/></g>
<g><path style="opacity:1" fill="#f6f6f6" d="M 358.5,203.5 C 362.411,208.322 366.078,213.322 369.5,218.5C 371.409,248.135 372.075,277.801 371.5,307.5C 361.5,307.5 351.5,307.5 341.5,307.5C 342.726,294.035 342.393,280.702 340.5,267.5C 341.075,258.861 341.075,250.195 340.5,241.5C 349.833,241.5 359.167,241.5 368.5,241.5C 368.843,239.517 368.176,238.183 366.5,237.5C 360.932,237.594 357.932,234.927 357.5,229.5C 357.174,220.651 357.507,211.984 358.5,203.5 Z"/></g>
<g><path style="opacity:1" fill="#f6f6f6" d="M 417.5,241.5 C 426.833,241.5 436.167,241.5 445.5,241.5C 445.5,263.5 445.5,285.5 445.5,307.5C 440.637,307.181 435.97,307.514 431.5,308.5C 431.281,309.675 431.614,310.675 432.5,311.5C 435.228,312.145 437.895,312.979 440.5,314C 441.126,314.75 441.626,315.584 442,316.5C 442.667,339.833 442.667,363.167 442,386.5C 441.626,387.416 441.126,388.25 440.5,389C 437.895,390.021 435.228,390.855 432.5,391.5C 431.614,392.325 431.281,393.325 431.5,394.5C 435.634,395.485 439.968,395.818 444.5,395.5C 443.345,417.48 442.678,439.48 442.5,461.5C 432.5,461.5 422.5,461.5 412.5,461.5C 412.575,435.163 412.908,408.829 413.5,382.5C 414.174,379.474 415.007,376.474 416,373.5C 416.333,354.833 416.667,336.167 417,317.5C 418.728,314.047 421.562,312.214 425.5,312C 426.337,310.989 426.67,309.822 426.5,308.5C 422.702,307.517 418.702,307.183 414.5,307.5C 415.148,284.506 415.648,261.506 416,238.5C 416.232,239.737 416.732,240.737 417.5,241.5 Z"/></g>
<g><path style="opacity:1" fill="#e8d2d2" d="M 146.5,237.5 C 146.833,237.5 147.167,237.5 147.5,237.5C 147.5,238.5 147.5,239.5 147.5,240.5C 163.5,240.5 179.5,240.5 195.5,240.5C 186.348,241.494 177.015,241.827 167.5,241.5C 160.5,241.5 153.5,241.5 146.5,241.5C 146.5,240.167 146.5,238.833 146.5,237.5 Z"/></g>
<g><path style="opacity:1" fill="#efeeee" d="M 203.5,239.5 C 203.193,246.891 202.86,254.057 202.5,261C 204.09,276.349 205.09,291.849 205.5,307.5C 214.167,307.5 222.833,307.5 231.5,307.5C 232.791,307.263 233.791,307.596 234.5,308.5C 225.167,308.5 215.833,308.5 206.5,308.5C 206.5,309.5 206.5,310.5 206.5,311.5C 208.415,311.216 210.081,311.549 211.5,312.5C 209.833,312.5 208.167,312.5 206.5,312.5C 206.578,319.7 207.245,326.7 208.5,333.5C 205.556,338.799 202.556,344.133 199.5,349.5C 198.833,350.833 198.167,350.833 197.5,349.5C 190.973,338.447 184.973,327.113 179.5,315.5C 179.59,313.575 180.59,312.408 182.5,312C 184.81,311.503 187.143,311.337 189.5,311.5C 189.5,310.5 189.5,309.5 189.5,308.5C 175.167,308.5 160.833,308.5 146.5,308.5C 146.842,307.662 147.508,307.328 148.5,307.5C 156.167,307.5 163.833,307.5 171.5,307.5C 171.435,292.439 170.102,276.939 167.5,261C 168.03,255.172 168.03,248.672 167.5,241.5C 177.015,241.827 186.348,241.494 195.5,240.5C 198.237,240.599 200.904,240.265 203.5,239.5 Z"/></g>
<g><path style="opacity:1" fill="#f6f6f6" d="M 295.5,240.5 C 296.597,249.03 297.597,257.697 298.5,266.5C 297.913,268.273 297.58,270.106 297.5,272C 298.797,283.825 299.797,295.658 300.5,307.5C 291.174,306.198 281.84,306.198 272.5,307.5C 271.732,306.737 271.232,305.737 271,304.5C 270.815,297.253 270.315,290.087 269.5,283C 270.097,281.938 270.43,280.772 270.5,279.5C 269.969,274.266 269.302,269.1 268.5,264C 269.811,257.392 269.811,250.559 268.5,243.5C 277.744,244.21 286.744,243.21 295.5,240.5 Z"/></g>
<g><path style="opacity:1" fill="#e8d2d2" d="M 326.5,237.5 C 326.196,238.15 325.863,238.817 325.5,239.5C 339.5,240.833 353.5,240.833 367.5,239.5C 367.137,238.817 366.804,238.15 366.5,237.5C 368.176,238.183 368.843,239.517 368.5,241.5C 359.167,241.5 349.833,241.5 340.5,241.5C 335.167,241.5 329.833,241.5 324.5,241.5C 324.157,239.517 324.824,238.183 326.5,237.5 Z"/></g>
<g><path style="opacity:1" fill="#f6f6f6" d="M 146.5,241.5 C 153.5,241.5 160.5,241.5 167.5,241.5C 168.03,248.672 168.03,255.172 167.5,261C 170.102,276.939 171.435,292.439 171.5,307.5C 163.833,307.5 156.167,307.5 148.5,307.5C 148.611,306.883 148.944,306.383 149.5,306C 147.553,285.567 146.22,265.067 145.5,244.5C 146.127,243.583 146.461,242.583 146.5,241.5 Z"/></g>
<g><path style="opacity:0.992" fill="#efefef" d="M 758.5,245.5 C 767.463,265.66 774.13,286.66 778.5,308.5C 777.275,309.152 776.608,310.319 776.5,312C 781.56,348.143 781.06,384.643 775,421.5C 756.047,527.42 708.714,618.087 633,693.5C 704.442,617.292 750.109,527.292 770,423.5C 781.477,364.109 777.643,304.776 758.5,245.5 Z"/></g>
<g><path style="opacity:1" fill="#e4c6c6" d="M 300.5,307.5 C 317.004,313.174 327.504,324.507 332,341.5C 335.316,365.535 326.483,383.202 305.5,394.5C 295.989,397.467 286.322,398.134 276.5,396.5C 259.445,392.615 248.279,382.282 243,365.5C 237.266,337.964 247.1,318.63 272.5,307.5C 281.84,306.198 291.174,306.198 300.5,307.5 Z"/></g>
<g><path style="opacity:1" fill="#ecdede" d="M 341.5,307.5 C 351.5,307.5 361.5,307.5 371.5,307.5C 375.371,307.185 379.038,307.518 382.5,308.5C 368.167,308.5 353.833,308.5 339.5,308.5C 339.5,309.5 339.5,310.5 339.5,311.5C 338.566,310.432 338.232,309.099 338.5,307.5C 339.5,307.5 340.5,307.5 341.5,307.5 Z"/></g>
<g><path style="opacity:1" fill="#e4c6c6" d="M 146.5,308.5 C 160.833,308.5 175.167,308.5 189.5,308.5C 189.5,309.5 189.5,310.5 189.5,311.5C 187.143,311.337 184.81,311.503 182.5,312C 180.59,312.408 179.59,313.575 179.5,315.5C 184.973,327.113 190.973,338.447 197.5,349.5C 198.167,350.833 198.833,350.833 199.5,349.5C 202.556,344.133 205.556,338.799 208.5,333.5C 213.645,328.234 216.145,321.901 216,314.5C 214.89,312.963 213.39,312.297 211.5,312.5C 210.081,311.549 208.415,311.216 206.5,311.5C 206.5,310.5 206.5,309.5 206.5,308.5C 215.833,308.5 225.167,308.5 234.5,308.5C 234.5,309.5 234.5,310.5 234.5,311.5C 233.209,311.263 232.209,311.596 231.5,312.5C 229.83,312.751 228.33,313.418 227,314.5C 221.155,324.194 215.322,333.861 209.5,343.5C 206.775,347.268 204.275,351.268 202,355.5C 201.333,365.833 201.333,376.167 202,386.5C 204.839,390.178 208.673,391.845 213.5,391.5C 213.5,392.5 213.5,393.5 213.5,394.5C 198.5,394.5 183.5,394.5 168.5,394.5C 168.5,393.5 168.5,392.5 168.5,391.5C 173.681,391.856 177.514,389.856 180,385.5C 180.667,377.167 180.667,368.833 180,360.5C 172,345.833 164,331.167 156,316.5C 154.568,314.561 152.735,313.228 150.5,312.5C 149.432,311.566 148.099,311.232 146.5,311.5C 146.5,310.5 146.5,309.5 146.5,308.5 Z"/></g>
<g><path style="opacity:1" fill="#e4c6c6" d="M 382.5,308.5 C 382.5,309.5 382.5,310.5 382.5,311.5C 379.478,311.804 376.478,312.304 373.5,313C 372.619,313.708 371.953,314.542 371.5,315.5C 370.732,316.263 370.232,317.263 370,318.5C 369.333,335.833 369.333,353.167 370,370.5C 370.236,374.344 371.07,378.011 372.5,381.5C 374.342,385.508 377.342,388.341 381.5,390C 394.208,393.225 403.374,389.058 409,377.5C 410.63,357.565 410.964,337.565 410,317.5C 407.378,313.338 403.545,311.338 398.5,311.5C 398.5,310.5 398.5,309.5 398.5,308.5C 407.833,308.5 417.167,308.5 426.5,308.5C 426.67,309.822 426.337,310.989 425.5,312C 421.562,312.214 418.728,314.047 417,317.5C 416.667,336.167 416.333,354.833 416,373.5C 415.007,376.474 414.174,379.474 413.5,382.5C 406.594,393.287 396.594,398.287 383.5,397.5C 380.116,397.414 376.783,397.081 373.5,396.5C 360.677,394.511 352.844,387.177 350,374.5C 349.667,355.167 349.333,335.833 349,316.5C 347.728,313.778 345.561,312.444 342.5,312.5C 341.791,311.596 340.791,311.263 339.5,311.5C 339.5,310.5 339.5,309.5 339.5,308.5C 353.833,308.5 368.167,308.5 382.5,308.5 Z"/></g>
<g><path style="opacity:1" fill="#e4c6c6" d="M 431.5,308.5 C 450.213,308.192 468.88,308.526 487.5,309.5C 496.983,310.322 503.816,314.989 508,323.5C 509.948,332.015 508.114,339.515 502.5,346C 497.961,348.769 493.294,351.269 488.5,353.5C 495.889,363.209 503.222,372.876 510.5,382.5C 512.616,386.954 515.949,389.954 520.5,391.5C 520.5,392.5 520.5,393.5 520.5,394.5C 511.167,394.5 501.833,394.5 492.5,394.5C 489.882,389.587 486.548,385.254 482.5,381.5C 476.966,372.453 470.799,363.786 464,355.5C 463.333,365.167 463.333,374.833 464,384.5C 465.544,389.641 469.044,391.974 474.5,391.5C 474.5,392.5 474.5,393.5 474.5,394.5C 460.167,394.5 445.833,394.5 431.5,394.5C 431.281,393.325 431.614,392.325 432.5,391.5C 435.228,390.855 437.895,390.021 440.5,389C 441.126,388.25 441.626,387.416 442,386.5C 442.667,363.167 442.667,339.833 442,316.5C 441.626,315.584 441.126,314.75 440.5,314C 437.895,312.979 435.228,312.145 432.5,311.5C 431.614,310.675 431.281,309.675 431.5,308.5 Z"/></g>
<g><path style="opacity:1" fill="#f6f6f6" d="M 301.5,318.5 C 301.106,319.967 300.773,321.467 300.5,323C 302.116,342.149 303.449,361.316 304.5,380.5C 299.858,390.986 291.858,394.819 280.5,392C 278.934,391.392 277.6,390.558 276.5,389.5C 274.549,366.19 272.883,342.857 271.5,319.5C 278.368,309.893 287.034,308.059 297.5,314C 299.041,315.371 300.375,316.871 301.5,318.5 Z"/></g>
<g><path style="opacity:1" fill="#f6f6f6" d="M 150.5,312.5 C 152.735,313.228 154.568,314.561 156,316.5C 164,331.167 172,345.833 180,360.5C 180.667,368.833 180.667,377.167 180,385.5C 177.514,389.856 173.681,391.856 168.5,391.5C 168.5,392.5 168.5,393.5 168.5,394.5C 173.779,394.893 178.946,395.893 184,397.5C 187.023,418.947 191.19,440.114 196.5,461C 195.906,461.464 195.239,461.631 194.5,461.5C 186.833,461.5 179.167,461.5 171.5,461.5C 161.654,413.243 154.32,364.577 149.5,315.5C 149.52,314.274 149.853,313.274 150.5,312.5 Z"/></g>
<g><path style="opacity:1" fill="#f6f5f5" d="M 211.5,312.5 C 213.39,312.297 214.89,312.963 216,314.5C 216.145,321.901 213.645,328.234 208.5,333.5C 207.245,326.7 206.578,319.7 206.5,312.5C 208.167,312.5 209.833,312.5 211.5,312.5 Z"/></g>
<g><path style="opacity:1" fill="#f6f6f6" d="M 231.5,312.5 C 233.118,317.903 233.951,323.57 234,329.5C 238.95,373.321 244.784,417.321 251.5,461.5C 247.298,461.183 243.298,461.517 239.5,462.5C 239.5,463.5 239.5,464.5 239.5,465.5C 243.676,465.168 247.176,466.502 250,469.5C 250.667,493.167 250.667,516.833 250,540.5C 247.592,543.62 244.426,544.953 240.5,544.5C 225.723,478.175 215.39,411.175 209.5,343.5C 215.322,333.861 221.155,324.194 227,314.5C 228.33,313.418 229.83,312.751 231.5,312.5 Z"/></g>
<g><path style="opacity:1" fill="#f6f6f6" d="M 342.5,312.5 C 345.561,312.444 347.728,313.778 349,316.5C 349.333,335.833 349.667,355.167 350,374.5C 352.844,387.177 360.677,394.511 373.5,396.5C 374.185,398.414 374.685,400.414 375,402.5C 375.203,422.203 376.036,441.869 377.5,461.5C 367.167,461.5 356.833,461.5 346.5,461.5C 345.008,418.662 343.341,375.828 341.5,333C 342.162,326.015 342.496,319.182 342.5,312.5 Z"/></g>
<g><path style="opacity:1" fill="#efeeee" d="M 466.5,312.5 C 476.672,310.825 483.172,314.825 486,324.5C 490.053,343.276 482.553,351.942 463.5,350.5C 463.333,338.829 463.5,327.162 464,315.5C 465.045,314.627 465.878,313.627 466.5,312.5 Z"/></g>
<g><path style="opacity:1" fill="#f4f1f1" d="M 371.5,315.5 C 372.267,331.914 373.267,348.414 374.5,365C 373.854,370.6 373.187,376.1 372.5,381.5C 371.07,378.011 370.236,374.344 370,370.5C 369.333,353.167 369.333,335.833 370,318.5C 370.232,317.263 370.732,316.263 371.5,315.5 Z"/></g>
<g><path style="opacity:1" fill="#efeeee" d="M 301.5,318.5 C 305.834,323.983 308.334,330.317 309,337.5C 309.667,345.833 309.667,354.167 309,362.5C 308.727,368.924 307.227,374.924 304.5,380.5C 303.449,361.316 302.116,342.149 300.5,323C 300.773,321.467 301.106,319.967 301.5,318.5 Z"/></g>
<g><path style="opacity:1" fill="#efeeee" d="M 271.5,319.5 C 272.883,342.857 274.549,366.19 276.5,389.5C 273.111,387.275 270.611,384.275 269,380.5C 266.406,374.791 265.073,368.791 265,362.5C 264.196,352.127 264.529,341.793 266,331.5C 267.061,327.05 268.895,323.05 271.5,319.5 Z"/></g>
<g><path style="opacity:0.985" fill="#efefef" d="M 780.5,319.5 C 783.469,332.557 785.469,345.89 786.5,359.5C 785.035,464.244 750.868,559.244 684,644.5C 683.833,644.167 683.667,643.833 683.5,643.5C 757.114,547.678 789.448,439.678 780.5,319.5 Z"/></g>
<g><path style="opacity:1" fill="#efefef" d="M 482.5,381.5 C 481.221,408.286 478.888,434.952 475.5,461.5C 470.5,461.5 465.5,461.5 460.5,461.5C 460.5,462.833 460.5,464.167 460.5,465.5C 464.653,466.971 467.987,469.637 470.5,473.5C 471.666,495.159 471.833,516.826 471,538.5C 469.17,543.185 465.67,545.185 460.5,544.5C 460.5,545.833 460.5,547.167 460.5,548.5C 462.833,548.5 465.167,548.5 467.5,548.5C 463.576,576.829 459.743,605.163 456,633.5C 449.968,675.958 440.634,717.625 428,758.5C 425.031,766.442 421.031,773.775 416,780.5C 418.308,771.687 420.308,762.687 422,753.5C 431.343,685.513 436.843,617.18 438.5,548.5C 443.833,548.5 449.167,548.5 454.5,548.5C 454.5,547.167 454.5,545.833 454.5,544.5C 452.143,544.663 449.81,544.497 447.5,544C 445.667,543.5 444.5,542.333 444,540.5C 443.333,516.833 443.333,493.167 444,469.5C 446.546,465.95 450.046,464.617 454.5,465.5C 455.434,464.432 455.768,463.099 455.5,461.5C 451.167,461.5 446.833,461.5 442.5,461.5C 442.678,439.48 443.345,417.48 444.5,395.5C 439.968,395.818 435.634,395.485 431.5,394.5C 445.833,394.5 460.167,394.5 474.5,394.5C 474.5,393.5 474.5,392.5 474.5,391.5C 469.044,391.974 465.544,389.641 464,384.5C 463.333,374.833 463.333,365.167 464,355.5C 470.799,363.786 476.966,372.453 482.5,381.5 Z"/></g>
<g><path style="opacity:0.984" fill="#f0f0f0" d="M 786.5,362.5 C 787.631,382.802 787.798,403.136 787,423.5C 786.608,430.368 785.775,437.034 784.5,443.5C 784.067,440.834 783.567,438.168 783,435.5C 775.125,486.905 758.459,535.238 733,580.5C 732.346,581.696 731.846,581.696 731.5,580.5C 769.287,512.683 787.621,440.017 786.5,362.5 Z"/></g>
<g><path style="opacity:1" fill="#f6f6f6" d="M 482.5,381.5 C 486.548,385.254 489.882,389.587 492.5,394.5C 498.645,395.49 504.978,395.823 511.5,395.5C 509.424,420.505 507.257,445.505 505,470.5C 504.796,473.797 503.963,476.797 502.5,479.5C 497.739,473.564 492.739,467.731 487.5,462C 483.514,461.501 479.514,461.334 475.5,461.5C 478.888,434.952 481.221,408.286 482.5,381.5 Z"/></g>
<g><path style="opacity:1" fill="#efefef" d="M 413.5,382.5 C 412.908,408.829 412.575,435.163 412.5,461.5C 411.5,461.5 410.5,461.5 409.5,461.5C 409.232,463.099 409.566,464.432 410.5,465.5C 411.167,465.5 411.833,465.5 412.5,465.5C 411.397,488.981 410.397,512.481 409.5,536C 409.502,539.021 409.836,541.854 410.5,544.5C 410.5,545.833 410.5,547.167 410.5,548.5C 408.056,603.998 405.556,659.664 403,715.5C 402.109,737.653 399.942,759.653 396.5,781.5C 395.749,780.624 395.249,779.624 395,778.5C 388.071,701.971 383.238,625.305 380.5,548.5C 382.833,548.5 385.167,548.5 387.5,548.5C 387.719,547.325 387.386,546.325 386.5,545.5C 384.018,544.933 381.684,544.266 379.5,543.5C 380.163,541.527 380.496,539.361 380.5,537C 378.785,513.528 377.785,490.028 377.5,466.5C 390.99,466.989 398.324,473.989 399.5,487.5C 400.833,487.5 402.167,487.5 403.5,487.5C 403.5,479.833 403.5,472.167 403.5,464.5C 403.5,463.5 403.5,462.5 403.5,461.5C 394.833,461.5 386.167,461.5 377.5,461.5C 376.036,441.869 375.203,422.203 375,402.5C 374.685,400.414 374.185,398.414 373.5,396.5C 376.783,397.081 380.116,397.414 383.5,397.5C 396.594,398.287 406.594,393.287 413.5,382.5 Z"/></g>
<g><path style="opacity:1" fill="#efefef" d="M 209.5,343.5 C 215.39,411.175 225.723,478.175 240.5,544.5C 239.876,544.917 239.543,545.584 239.5,546.5C 239.747,547.713 240.414,548.38 241.5,548.5C 247.104,572.247 252.938,595.914 259,619.5C 266.065,642.363 273.732,665.029 282,687.5C 290.169,708.073 299.836,727.74 311,746.5C 317.729,757.229 325.895,766.729 335.5,775C 335.167,775.167 334.833,775.333 334.5,775.5C 330.691,772.858 327.024,770.025 323.5,767C 304.362,747.556 288.529,725.722 276,701.5C 251.795,652.309 232.628,601.309 218.5,548.5C 224.167,548.5 229.833,548.5 235.5,548.5C 224.88,535.192 214.547,521.525 204.5,507.5C 208.766,505.029 213.099,502.529 217.5,500C 224.442,493.041 226.276,484.874 223,475.5C 215.989,465.914 206.489,461.581 194.5,462.5C 194.5,462.167 194.5,461.833 194.5,461.5C 195.239,461.631 195.906,461.464 196.5,461C 191.19,440.114 187.023,418.947 184,397.5C 178.946,395.893 173.779,394.893 168.5,394.5C 183.5,394.5 198.5,394.5 213.5,394.5C 213.5,393.5 213.5,392.5 213.5,391.5C 208.673,391.845 204.839,390.178 202,386.5C 201.333,376.167 201.333,365.833 202,355.5C 204.275,351.268 206.775,347.268 209.5,343.5 Z"/></g>
<g><path style="opacity:1" fill="#f6f6f6" d="M 305.5,394.5 C 308.347,416.628 310.681,438.962 312.5,461.5C 302.5,461.5 292.5,461.5 282.5,461.5C 280.98,439.782 278.98,418.116 276.5,396.5C 286.322,398.134 295.989,397.467 305.5,394.5 Z"/></g>
<g><path style="opacity:1" fill="#e4c6c6" d="M 684.5,460.5 C 688.082,461.692 691.749,462.692 695.5,463.5C 698.175,463.469 699.509,462.136 699.5,459.5C 700.833,459.5 702.167,459.5 703.5,459.5C 703.5,468.833 703.5,478.167 703.5,487.5C 702.167,487.5 700.833,487.5 699.5,487.5C 699.457,482.756 697.79,478.756 694.5,475.5C 691.599,469.6 686.932,465.933 680.5,464.5C 672.969,462.171 667.136,464.504 663,471.5C 661.202,480.545 664.702,486.545 673.5,489.5C 677.883,492.358 682.55,494.692 687.5,496.5C 691.492,498.83 695.492,501.163 699.5,503.5C 703.474,507.78 706.14,512.78 707.5,518.5C 708.323,529.373 704.656,538.373 696.5,545.5C 691.558,547.37 686.558,549.036 681.5,550.5C 677.069,550.769 672.735,550.436 668.5,549.5C 663.941,548.921 659.608,547.588 655.5,545.5C 652.686,545.981 651.352,547.648 651.5,550.5C 650.167,550.5 648.833,550.5 647.5,550.5C 647.5,539.833 647.5,529.167 647.5,518.5C 648.833,518.5 650.167,518.5 651.5,518.5C 652.35,522.553 653.516,526.553 655,530.5C 655.697,532.584 656.864,534.251 658.5,535.5C 661.314,539.968 665.314,542.968 670.5,544.5C 682.619,548.344 689.952,544.011 692.5,531.5C 691.023,524.689 687.023,520.022 680.5,517.5C 676.291,515.229 671.958,513.229 667.5,511.5C 661.562,507.894 656.229,503.561 651.5,498.5C 644.735,483.517 648.069,471.517 661.5,462.5C 663.189,461.069 665.189,460.236 667.5,460C 673.195,459.374 678.862,459.541 684.5,460.5 Z"/></g>
<g><path style="opacity:1" fill="#e4c6c6" d="M 593.5,460.5 C 595.144,460.286 596.644,460.62 598,461.5C 601.942,471.041 606.109,480.375 610.5,489.5C 614.796,500.74 619.463,511.74 624.5,522.5C 626.772,529.048 629.606,535.381 633,541.5C 634.129,543.141 635.629,544.141 637.5,544.5C 639.176,545.183 639.843,546.517 639.5,548.5C 638.167,548.5 636.833,548.5 635.5,548.5C 628.833,548.5 622.167,548.5 615.5,548.5C 609.833,548.5 604.167,548.5 598.5,548.5C 598.5,547.167 598.5,545.833 598.5,544.5C 605.981,546.506 609.147,543.839 608,536.5C 606.434,531.944 604.601,527.61 602.5,523.5C 594.5,523.5 586.5,523.5 578.5,523.5C 576.712,523.215 575.045,523.548 573.5,524.5C 570.65,529.871 569.15,535.538 569,541.5C 570.129,543.141 571.629,544.141 573.5,544.5C 575.167,544.5 576.833,544.5 578.5,544.5C 578.5,545.833 578.5,547.167 578.5,548.5C 576.167,548.5 573.833,548.5 571.5,548.5C 565.167,548.5 558.833,548.5 552.5,548.5C 552.5,547.167 552.5,545.833 552.5,544.5C 557.609,543.57 561.109,540.57 563,535.5C 573.182,510.474 583.349,485.474 593.5,460.5 Z"/></g>
<g><path style="opacity:1" fill="#e8d2d2" d="M 147.5,461.5 C 155.5,461.5 163.5,461.5 171.5,461.5C 179.167,461.5 186.833,461.5 194.5,461.5C 194.5,461.833 194.5,462.167 194.5,462.5C 178.833,462.5 163.167,462.5 147.5,462.5C 147.5,463.5 147.5,464.5 147.5,465.5C 146.167,464.167 146.167,462.833 147.5,461.5 Z"/></g>
<g><path style="opacity:1" fill="#e8d2d2" d="M 239.5,462.5 C 243.298,461.517 247.298,461.183 251.5,461.5C 261.833,461.5 272.167,461.5 282.5,461.5C 292.5,461.5 302.5,461.5 312.5,461.5C 313.487,466.305 313.821,471.305 313.5,476.5C 313.815,480.371 313.482,484.038 312.5,487.5C 312.5,479.167 312.5,470.833 312.5,462.5C 288.167,462.5 263.833,462.5 239.5,462.5 Z"/></g>
<g><path style="opacity:1" fill="#e8d3d3" d="M 346.5,461.5 C 356.833,461.5 367.167,461.5 377.5,461.5C 386.167,461.5 394.833,461.5 403.5,461.5C 403.5,462.5 403.5,463.5 403.5,464.5C 378.061,462.524 352.394,461.857 326.5,462.5C 326.5,470.833 326.5,479.167 326.5,487.5C 325.507,479.016 325.174,470.349 325.5,461.5C 332.5,461.5 339.5,461.5 346.5,461.5 Z"/></g>
<g><path style="opacity:1" fill="#e8d3d3" d="M 412.5,461.5 C 422.5,461.5 432.5,461.5 442.5,461.5C 446.833,461.5 451.167,461.5 455.5,461.5C 455.768,463.099 455.434,464.432 454.5,465.5C 454.5,464.5 454.5,463.5 454.5,462.5C 439.833,462.5 425.167,462.5 410.5,462.5C 410.5,463.5 410.5,464.5 410.5,465.5C 409.566,464.432 409.232,463.099 409.5,461.5C 410.5,461.5 411.5,461.5 412.5,461.5 Z"/></g>
<g><path style="opacity:1" fill="#e7d3d3" d="M 537.5,461.5 C 541.042,461.187 544.375,461.521 547.5,462.5C 538.5,462.5 529.5,462.5 520.5,462.5C 520.5,463.5 520.5,464.5 520.5,465.5C 519.566,464.432 519.232,463.099 519.5,461.5C 525.5,461.5 531.5,461.5 537.5,461.5 Z"/></g>
<g><path style="opacity:1" fill="#e4c6c6" d="M 194.5,462.5 C 206.489,461.581 215.989,465.914 223,475.5C 226.276,484.874 224.442,493.041 217.5,500C 213.099,502.529 208.766,505.029 204.5,507.5C 214.547,521.525 224.88,535.192 235.5,548.5C 229.833,548.5 224.167,548.5 218.5,548.5C 215.15,548.665 211.817,548.498 208.5,548C 201.335,538.007 194.001,528.174 186.5,518.5C 184.5,515.833 182.5,513.167 180.5,510.5C 180.44,509.957 180.107,509.624 179.5,509.5C 178.178,518.658 178.178,527.658 179.5,536.5C 180.332,542.993 183.999,545.659 190.5,544.5C 190.5,545.833 190.5,547.167 190.5,548.5C 184.833,548.5 179.167,548.5 173.5,548.5C 166.833,548.5 160.167,548.5 153.5,548.5C 151.5,548.5 149.5,548.5 147.5,548.5C 147.5,547.167 147.5,545.833 147.5,544.5C 149.415,544.784 151.081,544.451 152.5,543.5C 155.702,543.463 157.368,541.797 157.5,538.5C 158.663,516.671 158.83,494.671 158,472.5C 157.111,467.134 153.944,464.801 148.5,465.5C 148.167,465.5 147.833,465.5 147.5,465.5C 147.5,464.5 147.5,463.5 147.5,462.5C 163.167,462.5 178.833,462.5 194.5,462.5 Z"/></g>
<g><path style="opacity:1" fill="#e4c6c6" d="M 239.5,462.5 C 263.833,462.5 288.167,462.5 312.5,462.5C 312.5,470.833 312.5,479.167 312.5,487.5C 311.5,487.5 310.5,487.5 309.5,487.5C 307.533,472.487 298.866,465.487 283.5,466.5C 280.15,466.335 276.817,466.502 273.5,467C 273,467.5 272.5,468 272,468.5C 271.5,479.495 271.333,490.495 271.5,501.5C 278.722,502.717 284.388,500.383 288.5,494.5C 290.314,490.721 291.314,486.721 291.5,482.5C 292.833,482.5 294.167,482.5 295.5,482.5C 295.5,497.167 295.5,511.833 295.5,526.5C 294.5,526.5 293.5,526.5 292.5,526.5C 291.906,512.903 284.906,506.236 271.5,506.5C 271.188,518.218 271.521,529.884 272.5,541.5C 273.025,542.192 273.692,542.692 274.5,543C 281.014,543.82 287.347,543.653 293.5,542.5C 304.266,539.739 311.6,533.072 315.5,522.5C 316.689,521.571 318.022,521.238 319.5,521.5C 318.85,523.435 318.517,525.435 318.5,527.5C 316.654,534.395 315.321,541.395 314.5,548.5C 307.833,548.5 301.167,548.5 294.5,548.5C 285.833,548.5 277.167,548.5 268.5,548.5C 259.5,548.5 250.5,548.5 241.5,548.5C 240.414,548.38 239.747,547.713 239.5,546.5C 239.543,545.584 239.876,544.917 240.5,544.5C 244.426,544.953 247.592,543.62 250,540.5C 250.667,516.833 250.667,493.167 250,469.5C 247.176,466.502 243.676,465.168 239.5,465.5C 239.5,464.5 239.5,463.5 239.5,462.5 Z"/></g>
<g><path style="opacity:1" fill="#e4c6c6" d="M 403.5,464.5 C 403.5,472.167 403.5,479.833 403.5,487.5C 402.167,487.5 400.833,487.5 399.5,487.5C 398.324,473.989 390.99,466.989 377.5,466.5C 376.5,466.5 375.5,466.5 374.5,466.5C 374.333,490.169 374.5,513.836 375,537.5C 375.332,540.543 376.832,542.543 379.5,543.5C 381.684,544.266 384.018,544.933 386.5,545.5C 387.386,546.325 387.719,547.325 387.5,548.5C 385.167,548.5 382.833,548.5 380.5,548.5C 370.5,548.5 360.5,548.5 350.5,548.5C 347.833,548.5 345.167,548.5 342.5,548.5C 342.5,547.167 342.5,545.833 342.5,544.5C 345.877,544.932 348.877,544.265 351.5,542.5C 352.793,541.158 353.626,539.491 354,537.5C 354.5,513.836 354.667,490.169 354.5,466.5C 352.5,466.5 350.5,466.5 348.5,466.5C 336.732,468.599 330.732,475.599 330.5,487.5C 329.167,487.5 327.833,487.5 326.5,487.5C 326.5,479.167 326.5,470.833 326.5,462.5C 352.394,461.857 378.061,462.524 403.5,464.5 Z"/></g>
<g><path style="opacity:1" fill="#e4c7c7" d="M 454.5,465.5 C 450.046,464.617 446.546,465.95 444,469.5C 443.333,493.167 443.333,516.833 444,540.5C 444.5,542.333 445.667,543.5 447.5,544C 449.81,544.497 452.143,544.663 454.5,544.5C 454.5,545.833 454.5,547.167 454.5,548.5C 449.167,548.5 443.833,548.5 438.5,548.5C 429.167,548.5 419.833,548.5 410.5,548.5C 410.5,547.167 410.5,545.833 410.5,544.5C 414.803,545.204 418.303,543.87 421,540.5C 421.667,516.833 421.667,493.167 421,469.5C 418.772,466.922 415.939,465.589 412.5,465.5C 411.833,465.5 411.167,465.5 410.5,465.5C 410.5,464.5 410.5,463.5 410.5,462.5C 425.167,462.5 439.833,462.5 454.5,462.5C 454.5,463.5 454.5,464.5 454.5,465.5 Z"/></g>
<g><path style="opacity:1" fill="#e4c6c6" d="M 475.5,461.5 C 479.514,461.334 483.514,461.501 487.5,462C 492.739,467.731 497.739,473.564 502.5,479.5C 511.833,491.167 521.167,502.833 530.5,514.5C 530.56,515.043 530.893,515.376 531.5,515.5C 532.826,501.339 532.826,487.339 531.5,473.5C 530.294,467.709 526.627,465.043 520.5,465.5C 520.5,464.5 520.5,463.5 520.5,462.5C 529.5,462.5 538.5,462.5 547.5,462.5C 547.5,463.5 547.5,464.5 547.5,465.5C 543.378,465.476 540.212,467.143 538,470.5C 537.5,497.165 537.333,523.831 537.5,550.5C 536.127,550.657 534.793,550.49 533.5,550C 530.635,546.308 527.635,542.808 524.5,539.5C 516.47,529.809 508.47,520.142 500.5,510.5C 493.137,501.475 485.803,492.475 478.5,483.5C 478.44,482.957 478.107,482.624 477.5,482.5C 476.173,500.662 476.173,518.662 477.5,536.5C 477.491,538.308 477.991,539.975 479,541.5C 481.984,544.1 485.484,545.1 489.5,544.5C 489.5,545.833 489.5,547.167 489.5,548.5C 482.167,548.5 474.833,548.5 467.5,548.5C 465.167,548.5 462.833,548.5 460.5,548.5C 460.5,547.167 460.5,545.833 460.5,544.5C 465.67,545.185 469.17,543.185 471,538.5C 471.833,516.826 471.666,495.159 470.5,473.5C 467.987,469.637 464.653,466.971 460.5,465.5C 460.5,464.167 460.5,462.833 460.5,461.5C 465.5,461.5 470.5,461.5 475.5,461.5 Z"/></g>
<g><path style="opacity:1" fill="#eeeeee" d="M 680.5,464.5 C 677.97,472.761 675.636,481.094 673.5,489.5C 664.702,486.545 661.202,480.545 663,471.5C 667.136,464.504 672.969,462.171 680.5,464.5 Z"/></g>
<g><path style="opacity:1" fill="#f6f6f6" d="M 680.5,464.5 C 686.932,465.933 691.599,469.6 694.5,475.5C 692.543,482.61 690.209,489.61 687.5,496.5C 682.55,494.692 677.883,492.358 673.5,489.5C 675.636,481.094 677.97,472.761 680.5,464.5 Z"/></g>
<g><path style="opacity:1" fill="#efeded" d="M 148.5,465.5 C 153.944,464.801 157.111,467.134 158,472.5C 158.83,494.671 158.663,516.671 157.5,538.5C 160.029,513.347 157.029,489.013 148.5,465.5 Z"/></g>
<g><path style="opacity:1" fill="#f6f6f6" d="M 412.5,465.5 C 415.939,465.589 418.772,466.922 421,469.5C 421.667,493.167 421.667,516.833 421,540.5C 418.303,543.87 414.803,545.204 410.5,544.5C 409.836,541.854 409.502,539.021 409.5,536C 410.397,512.481 411.397,488.981 412.5,465.5 Z"/></g>
<g><path style="opacity:1" fill="#f6f6f6" d="M 198.5,471.5 C 200.556,478.34 201.556,485.34 201.5,492.5C 200.212,498.948 196.212,502.448 189.5,503C 186.183,503.498 182.85,503.665 179.5,503.5C 179.333,491.829 179.5,480.162 180,468.5C 180.5,468 181,467.5 181.5,467C 185.167,466.333 188.833,466.333 192.5,467C 195.106,467.792 197.106,469.292 198.5,471.5 Z"/></g>
<g><path style="opacity:1" fill="#efeeee" d="M 283.5,466.5 C 284.775,474.791 285.775,483.124 286.5,491.5C 286.64,493.03 287.307,494.03 288.5,494.5C 284.388,500.383 278.722,502.717 271.5,501.5C 271.333,490.495 271.5,479.495 272,468.5C 272.5,468 273,467.5 273.5,467C 276.817,466.502 280.15,466.335 283.5,466.5 Z"/></g>
<g><path style="opacity:1" fill="#f6f6f6" d="M 283.5,466.5 C 298.866,465.487 307.533,472.487 309.5,487.5C 310.5,487.5 311.5,487.5 312.5,487.5C 313.482,484.038 313.815,480.371 313.5,476.5C 315.362,491.369 317.362,506.369 319.5,521.5C 318.022,521.238 316.689,521.571 315.5,522.5C 311.6,533.072 304.266,539.739 293.5,542.5C 291.813,537.087 291.48,531.753 292.5,526.5C 293.5,526.5 294.5,526.5 295.5,526.5C 295.5,511.833 295.5,497.167 295.5,482.5C 294.167,482.5 292.833,482.5 291.5,482.5C 291.314,486.721 290.314,490.721 288.5,494.5C 287.307,494.03 286.64,493.03 286.5,491.5C 285.775,483.124 284.775,474.791 283.5,466.5 Z"/></g>
<g><path style="opacity:1" fill="#f5f4f4" d="M 348.5,466.5 C 350.5,466.5 352.5,466.5 354.5,466.5C 354.667,490.169 354.5,513.836 354,537.5C 353.626,539.491 352.793,541.158 351.5,542.5C 349.804,518.32 348.137,493.987 346.5,469.5C 346.942,468.261 347.609,467.261 348.5,466.5 Z"/></g>
<g><path style="opacity:1" fill="#f4f1f1" d="M 377.5,466.5 C 377.785,490.028 378.785,513.528 380.5,537C 380.496,539.361 380.163,541.527 379.5,543.5C 376.832,542.543 375.332,540.543 375,537.5C 374.5,513.836 374.333,490.169 374.5,466.5C 375.5,466.5 376.5,466.5 377.5,466.5 Z"/></g>
<g><path style="opacity:1" fill="#efeaea" d="M 198.5,471.5 C 200.41,472.975 201.576,474.975 202,477.5C 202.816,482.684 202.65,487.684 201.5,492.5C 201.556,485.34 200.556,478.34 198.5,471.5 Z"/></g>
<g><path style="opacity:1" fill="#ebdcdc" d="M 531.5,473.5 C 532.826,487.339 532.826,501.339 531.5,515.5C 530.893,515.376 530.56,515.043 530.5,514.5C 531.496,501.01 531.829,487.344 531.5,473.5 Z"/></g>
<g><path style="opacity:1" fill="#eddede" d="M 478.5,483.5 C 477.503,500.992 477.17,518.659 477.5,536.5C 476.173,518.662 476.173,500.662 477.5,482.5C 478.107,482.624 478.44,482.957 478.5,483.5 Z"/></g>
<g><path style="opacity:1" fill="#f5f5f5" d="M 599.5,516.5 C 592.018,517.492 584.352,517.825 576.5,517.5C 579.785,507.6 583.618,497.933 588,488.5C 592.133,497.736 595.966,507.07 599.5,516.5 Z"/></g>
<g><path style="opacity:1" fill="#efeeee" d="M 651.5,498.5 C 656.229,503.561 661.562,507.894 667.5,511.5C 662.977,518.713 659.977,526.713 658.5,535.5C 656.864,534.251 655.697,532.584 655,530.5C 653.516,526.553 652.35,522.553 651.5,518.5C 650.167,518.5 648.833,518.5 647.5,518.5C 647.5,529.167 647.5,539.833 647.5,550.5C 646.506,540.013 646.172,529.346 646.5,518.5C 648.423,511.88 650.09,505.213 651.5,498.5 Z"/></g>
<g><path style="opacity:1" fill="#efeeee" d="M 292.5,526.5 C 291.48,531.753 291.813,537.087 293.5,542.5C 287.347,543.653 281.014,543.82 274.5,543C 273.692,542.692 273.025,542.192 272.5,541.5C 271.521,529.884 271.188,518.218 271.5,506.5C 284.906,506.236 291.906,512.903 292.5,526.5 Z"/></g>
<g><path style="opacity:1" fill="#e7d1d1" d="M 180.5,510.5 C 179.507,518.984 179.174,527.651 179.5,536.5C 178.178,527.658 178.178,518.658 179.5,509.5C 180.107,509.624 180.44,509.957 180.5,510.5 Z"/></g>
<g><path style="opacity:1" fill="#efefef" d="M 180.5,510.5 C 182.5,513.167 184.5,515.833 186.5,518.5C 196.004,558.188 208.504,597.188 224,635.5C 236.975,668.42 253.309,699.42 273,728.5C 283.134,742.965 294.968,755.798 308.5,767C 307.833,767.667 307.167,767.667 306.5,767C 303.167,764.667 299.833,762.333 296.5,760C 274.339,740.182 255.505,717.682 240,692.5C 213.101,646.615 190.935,598.615 173.5,548.5C 179.167,548.5 184.833,548.5 190.5,548.5C 190.5,547.167 190.5,545.833 190.5,544.5C 183.999,545.659 180.332,542.993 179.5,536.5C 179.174,527.651 179.507,518.984 180.5,510.5 Z"/></g>
<g><path style="opacity:1" fill="#efefef" d="M 500.5,510.5 C 508.47,520.142 516.47,529.809 524.5,539.5C 517.147,573.919 508.98,608.252 500,642.5C 491.512,673.632 480.845,703.965 468,733.5C 460.427,750.157 450.261,764.99 437.5,778C 436.833,778.667 436.167,778.667 435.5,778C 438.699,774.434 441.533,770.6 444,766.5C 454.925,744.056 463.258,720.722 469,696.5C 482.983,635.123 493.483,573.123 500.5,510.5 Z"/></g>
<g><path style="opacity:1" fill="#f6f6f6" d="M 667.5,511.5 C 671.958,513.229 676.291,515.229 680.5,517.5C 678.333,527.009 675,536.009 670.5,544.5C 665.314,542.968 661.314,539.968 658.5,535.5C 659.977,526.713 662.977,518.713 667.5,511.5 Z"/></g>
<g><path style="opacity:1" fill="#eddede" d="M 599.5,516.5 C 600.043,516.56 600.376,516.893 600.5,517.5C 592.343,518.82 584.343,518.82 576.5,517.5C 584.352,517.825 592.018,517.492 599.5,516.5 Z"/></g>
<g><path style="opacity:1" fill="#efefef" d="M 646.5,518.5 C 646.172,529.346 646.506,540.013 647.5,550.5C 648.833,550.5 650.167,550.5 651.5,550.5C 631.086,604.672 603.92,655.006 570,701.5C 552.237,724.098 531.737,743.765 508.5,760.5C 508.167,760.333 507.833,760.167 507.5,760C 523.297,747.871 537.463,734.037 550,718.5C 587.74,666.687 616.24,610.02 635.5,548.5C 636.833,548.5 638.167,548.5 639.5,548.5C 639.843,546.517 639.176,545.183 637.5,544.5C 640.526,535.753 643.526,527.086 646.5,518.5 Z"/></g>
<g><path style="opacity:1" fill="#efefef" d="M 680.5,517.5 C 687.023,520.022 691.023,524.689 692.5,531.5C 689.952,544.011 682.619,548.344 670.5,544.5C 675,536.009 678.333,527.009 680.5,517.5 Z"/></g>
<g><path style="opacity:1" fill="#efeded" d="M 578.5,523.5 C 576.961,530.53 575.294,537.53 573.5,544.5C 571.629,544.141 570.129,543.141 569,541.5C 569.15,535.538 570.65,529.871 573.5,524.5C 575.045,523.548 576.712,523.215 578.5,523.5 Z"/></g>
<g><path style="opacity:1" fill="#efefef" d="M 602.5,523.5 C 604.601,527.61 606.434,531.944 608,536.5C 609.147,543.839 605.981,546.506 598.5,544.5C 598.5,545.833 598.5,547.167 598.5,548.5C 604.167,548.5 609.833,548.5 615.5,548.5C 599.464,598.23 578.297,645.564 552,690.5C 534.884,720.29 512.717,745.79 485.5,767C 484.833,767.667 484.167,767.667 483.5,767C 504.131,748.223 521.297,726.723 535,702.5C 564.746,645.656 587.246,585.989 602.5,523.5 Z"/></g>
<g><path style="opacity:1" fill="#efefef" d="M 268.5,548.5 C 277.167,548.5 285.833,548.5 294.5,548.5C 301.267,598.712 310.767,648.379 323,697.5C 329.297,721.727 337.964,745.06 349,767.5C 352.231,771.347 354.898,775.347 357,779.5C 352,775.833 347.667,771.5 344,766.5C 330.176,746.746 319.176,725.412 311,702.5C 292.481,652.43 278.314,601.097 268.5,548.5 Z"/></g>
<g><path style="opacity:1" fill="#efefef" d="M 668.5,549.5 C 672.735,550.436 677.069,550.769 681.5,550.5C 663.199,593.297 640.699,633.63 614,671.5C 593.004,699.996 568.504,724.996 540.5,746.5C 567.782,722.342 591.615,694.676 612,663.5C 634.86,627.447 653.693,589.447 668.5,549.5 Z"/></g>
</svg>
